<?xml version="1.0" encoding="UTF-8" standalone="no"?>
<!DOCTYPE svg PUBLIC "-//W3C//DTD SVG 1.1//EN" "http://www.w3.org/Graphics/SVG/1.1/DTD/svg11.dtd">
<svg width="100%" height="100%" viewBox="0 0 921 533" version="1.1" xmlns="http://www.w3.org/2000/svg" xmlns:xlink="http://www.w3.org/1999/xlink" xml:space="preserve" xmlns:serif="http://www.serif.com/" style="fill-rule:evenodd;clip-rule:evenodd;stroke-linejoin:round;stroke-miterlimit:2;">
    <g opacity="0.7">
        <ellipse cx="460.5" cy="307.06" rx="460.5" ry="225.5" style="fill:url(#_Linear1);"/>
    </g>
    <ellipse cx="460.5" cy="307.06" rx="440.57" ry="215.74" style="fill:rgb(17,41,71);"/>
    <g opacity="0.5">
        <g transform="matrix(1,0,0,1,-139.5,-183.72)">
            <path d="M941.5,623.15L933.63,611.35L918,559.68L911.57,536.84L905.03,536.84C905.098,536.349 905.134,535.855 905.14,535.36C905.139,531.711 903.214,528.32 900.08,526.45C900.119,526.118 900.139,525.784 900.14,525.45C900.139,523.079 899.327,520.777 897.84,518.93C897.368,518.338 896.832,517.802 896.24,517.33L896.17,517.33C895.91,517.12 895.64,516.93 895.37,516.75L895.14,516.61C894.91,516.47 894.67,516.34 894.43,516.22L894.11,516.06L893.43,515.77L893.07,515.64C892.84,515.56 892.6,515.5 892.37,515.43L891.98,515.34C891.73,515.28 891.48,515.24 891.22,515.2L890.87,515.2C890.488,515.156 890.104,515.133 889.72,515.13C887.471,515.129 885.283,515.863 883.49,517.22C883.104,516.134 882.539,515.12 881.82,514.22C881.343,513.633 880.807,513.097 880.22,512.62C880.197,512.625 880.173,512.625 880.15,512.62C879.89,512.42 879.62,512.23 879.34,512.05L879.11,511.9C878.88,511.76 878.65,511.63 878.41,511.51L878.09,511.36C877.87,511.25 877.64,511.16 877.41,511.07L877.04,510.93L876.34,510.73L875.96,510.63C875.709,510.572 875.456,510.529 875.2,510.5L874.85,510.44C874.468,510.4 874.084,510.38 873.7,510.38C873.29,510.38 872.88,510.38 872.48,510.45C874.434,506.784 874.008,502.283 871.4,499.05C870.991,498.453 870.522,497.9 870,497.4C873.645,493.657 873.922,487.715 870.64,483.65C870.168,483.058 869.632,482.522 869.04,482.05L869,482C868.74,481.79 868.47,481.6 868.2,481.42L867.97,481.28C867.74,481.14 867.5,481.01 867.26,480.89L866.95,480.73L866.26,480.44L865.9,480.31C865.67,480.23 865.43,480.17 865.2,480.1C864.97,480.03 864.95,480.03 864.82,480.01C864.69,479.99 864.31,479.91 864.05,479.87L863.7,479.82C863.318,479.776 862.934,479.753 862.55,479.75L861.73,479.75C861.52,479.42 861.3,479.11 861.06,478.75C860.583,478.163 860.047,477.627 859.46,477.15C859.433,477.139 859.409,477.122 859.39,477.1C859.131,476.895 858.86,476.705 858.58,476.53L858.35,476.38C858.12,476.24 857.89,476.11 857.65,475.99L857.33,475.84C857.11,475.73 856.88,475.64 856.65,475.55L856.28,475.41L855.58,475.21L855.2,475.11C854.95,475.05 854.69,475.01 854.44,474.97L854,475C853.618,474.96 853.234,474.94 852.85,474.94C849.217,474.944 845.846,476.872 844,480C843.74,479.94 843.49,479.9 843.23,479.86L842.88,479.81C842.498,479.766 842.114,479.743 841.73,479.74L841.22,479.74C842.304,476.401 841.634,472.731 839.44,469.99C838.963,469.403 838.427,468.867 837.84,468.39L837.77,468.34C837.511,468.132 837.24,467.939 836.96,467.76L836.73,467.62C836.5,467.48 836.27,467.35 836.03,467.23L835.71,467.07L835.03,466.78L834.66,466.65C834.43,466.57 834.2,466.51 833.96,466.44L833.58,466.35C833.33,466.29 833.07,466.25 832.82,466.21L832.46,466.16C832.082,466.116 831.701,466.093 831.32,466.09C827.6,466.107 824.161,468.117 822.32,471.35C822.14,471.22 821.97,471.09 821.78,470.97L821.55,470.83C821.32,470.685 821.083,470.551 820.84,470.43L820.53,470.28C820.31,470.17 820.08,470.08 819.85,469.99L819.6,469.89C822.443,467.955 824.149,464.731 824.149,461.292C824.149,458.92 823.338,456.618 821.85,454.77C821.378,454.178 820.842,453.642 820.25,453.17L820.18,453.17C819.924,452.962 819.657,452.769 819.38,452.59L819.15,452.45C818.92,452.31 818.68,452.18 818.44,452.05L818.13,451.9L817.44,451.61L817.08,451.48C816.85,451.4 816.62,451.34 816.38,451.27L816,451.17L815.23,451.04L814.88,451.04C814.498,450.996 814.114,450.973 813.73,450.97C813.73,450.97 813.73,450.97 813.73,450.97C808.019,450.97 803.32,455.669 803.32,461.38L803.32,461.67C803.09,461.73 802.85,461.78 802.62,461.85C799.353,462.869 796.789,465.433 795.77,468.7C795.455,469.703 795.297,470.749 795.3,471.8C795.3,472.184 795.32,472.568 795.36,472.95L795.42,473.3L795.42,473.54L795.3,473.47L795.07,473.33L794.37,472.93L794.05,472.78L793.37,472.49L793,472.36C792.77,472.278 792.537,472.208 792.3,472.15L791.92,472.05L791.16,471.92L790.81,471.87C790.428,471.826 790.044,471.803 789.66,471.8C783.944,471.8 779.24,476.504 779.24,482.22C779.243,482.601 779.266,482.982 779.31,483.36L779.31,483.71C779.31,483.97 779.39,484.23 779.45,484.48C779.51,484.73 779.51,484.73 779.55,484.86C779.59,484.99 779.68,485.33 779.75,485.56L779.89,485.92C779.98,486.16 780.07,486.38 780.18,486.61L780.33,486.92C780.45,487.16 780.58,487.4 780.72,487.63L780.87,487.86C781.045,488.137 781.235,488.404 781.44,488.66L781.49,488.73L781.64,488.92L781.46,488.92C781.21,488.86 780.95,488.82 780.69,488.78L780.34,488.73C779.958,488.686 779.574,488.663 779.19,488.66C774.644,488.66 770.599,491.639 769.25,495.98C769.092,496.507 768.975,497.045 768.9,497.59L768.82,497.59L768.58,497.44C768.35,497.3 768.12,497.17 767.88,497.05L767.56,496.9C767.34,496.79 767.11,496.7 766.88,496.61L766.52,496.47L765.82,496.27L765.44,496.17C765.18,496.11 764.93,496.07 764.67,496.03L764.32,495.98C763.938,495.936 763.554,495.913 763.17,495.91C757.458,495.915 752.76,500.618 752.76,506.33C752.76,506.714 752.78,507.098 752.82,507.48L752.88,507.83C752.88,508.08 752.96,508.34 753.01,508.59C753.06,508.84 753.08,508.85 753.11,508.97C753.14,509.09 753.24,509.45 753.32,509.68C753.4,509.91 753.4,509.92 753.45,510.04C753.5,510.16 753.63,510.5 753.74,510.72L753.89,511.04C754.01,511.28 754.15,511.51 754.29,511.74C754.331,511.82 754.378,511.897 754.43,511.97C754.61,512.25 754.8,512.52 755,512.78L755.06,512.85L755.06,512.91C754.052,514.545 753.519,516.429 753.52,518.35C753.52,518.731 753.54,519.111 753.58,519.49L753.64,519.84C753.64,520.1 753.72,520.36 753.77,520.61C753.82,520.86 753.84,520.86 753.87,520.99C753.9,521.12 754,521.46 754.08,521.69C754.16,521.92 754.16,521.93 754.21,522.05C754.26,522.17 754.4,522.52 754.5,522.74L754.65,523.05C754.771,523.293 754.905,523.53 755.05,523.76C755.05,523.84 755.14,523.92 755.19,523.99C750.92,524.28 747.248,527.183 745.98,531.27C745.665,532.273 745.507,533.319 745.51,534.37C745.51,534.754 745.53,535.138 745.57,535.52L745.63,535.87C745.659,536.126 745.702,536.379 745.76,536.63L745.85,537L730.26,537L707.79,611.2L698.5,623.15L941.5,623.15ZM801.62,505.46L801.42,505.15L801.9,505.02L801.62,505.46ZM850.43,495.8L850.6,495.51L850.98,495.59C850.8,495.66 850.61,495.72 850.43,495.8Z" style="fill:url(#_Linear2);fill-rule:nonzero;"/>
        </g>
    </g>
    <circle cx="606.76" cy="380.98" r="9.86" style="fill:rgb(121,85,72);"/>
    <g transform="matrix(1,0,0,1,-139.5,-183.72)">
        <path d="M737.93,566.22C737.93,566.218 737.93,566.216 737.93,566.213C737.93,560.815 742.372,556.373 747.77,556.373C750.01,556.373 752.184,557.138 753.93,558.54C752.062,556.204 749.228,554.841 746.237,554.841C740.833,554.841 736.387,559.288 736.387,564.691C736.387,567.68 737.747,570.512 740.08,572.38C738.678,570.634 737.919,568.459 737.93,566.22Z" style="fill:white;fill-opacity:0.05;fill-rule:nonzero;"/>
    </g>
    <circle cx="640.88" cy="383.26" r="9.86" style="fill:rgb(121,85,72);"/>
    <g transform="matrix(1,0,0,1,-139.5,-183.72)">
        <path d="M772,568.49C772.008,563.092 776.452,558.654 781.85,558.654C784.085,558.654 786.254,559.415 788,560.81C786.131,558.491 783.308,557.14 780.33,557.14C774.926,557.14 770.48,561.586 770.48,566.99C770.48,569.968 771.831,572.791 774.15,574.66C772.753,572.908 771.994,570.731 772,568.49Z" style="fill:white;fill-opacity:0.05;fill-rule:nonzero;"/>
    </g>
    <circle cx="660.59" cy="384.77" r="9.86" style="fill:rgb(121,85,72);"/>
    <g transform="matrix(1,0,0,1,-139.5,-183.72)">
        <path d="M791.75,570C791.75,569.998 791.75,569.996 791.75,569.993C791.75,564.595 796.192,560.153 801.59,560.153C803.83,560.153 806.004,560.918 807.75,562.32C805.881,560.001 803.058,558.65 800.08,558.65C794.676,558.65 790.23,563.096 790.23,568.5C790.23,571.478 791.581,574.301 793.9,576.17C792.504,574.417 791.745,572.241 791.75,570Z" style="fill:white;fill-opacity:0.05;fill-rule:nonzero;"/>
    </g>
    <circle cx="670.44" cy="380.98" r="9.86" style="fill:rgb(121,85,72);"/>
    <g transform="matrix(1,0,0,1,-139.5,-183.72)">
        <path d="M801.6,566.22C801.608,560.822 806.052,556.384 811.45,556.384C813.685,556.384 815.854,557.145 817.6,558.54C815.732,556.204 812.898,554.841 809.907,554.841C804.503,554.841 800.057,559.288 800.057,564.691C800.057,567.68 801.417,570.512 803.75,572.38C802.349,570.634 801.59,568.459 801.6,566.22Z" style="fill:white;fill-opacity:0.05;fill-rule:nonzero;"/>
    </g>
    <circle cx="747.01" cy="380.98" r="9.86" style="fill:rgb(121,85,72);"/>
    <g transform="matrix(1,0,0,1,-139.5,-183.72)">
        <path d="M878.17,566.22C878.17,566.218 878.17,566.216 878.17,566.213C878.17,560.815 882.612,556.373 888.01,556.373C890.25,556.373 892.424,557.138 894.17,558.54C892.302,556.204 889.468,554.841 886.477,554.841C881.073,554.841 876.627,559.288 876.627,564.691C876.627,567.68 877.987,570.512 880.32,572.38C878.923,570.632 878.164,568.458 878.17,566.22Z" style="fill:white;fill-opacity:0.05;fill-rule:nonzero;"/>
    </g>
    <circle cx="708.35" cy="380.23" r="9.86" style="fill:rgb(121,85,72);"/>
    <g transform="matrix(1,0,0,1,-139.5,-183.72)">
        <path d="M839.51,565.46C839.518,560.062 843.962,555.624 849.36,555.624C851.595,555.624 853.764,556.385 855.51,557.78C853.641,555.461 850.818,554.11 847.84,554.11C842.436,554.11 837.99,558.556 837.99,563.96C837.99,566.938 839.341,569.761 841.66,571.63C840.258,569.881 839.499,567.702 839.51,565.46Z" style="fill:white;fill-opacity:0.05;fill-rule:nonzero;"/>
    </g>
    <circle cx="621.17" cy="371.89" r="9.86" style="fill:rgb(121,85,72);"/>
    <g transform="matrix(1,0,0,1,-139.5,-183.72)">
        <path d="M752.33,557.12C752.338,551.722 756.782,547.284 762.18,547.284C764.415,547.284 766.584,548.045 768.33,549.44C766.461,547.121 763.638,545.77 760.66,545.77C755.256,545.77 750.81,550.216 750.81,555.62C750.81,558.598 752.161,561.421 754.48,563.29C753.083,561.538 752.324,559.361 752.33,557.12Z" style="fill:white;fill-opacity:0.05;fill-rule:nonzero;"/>
    </g>
    <circle cx="700.77" cy="351.42" r="9.86" style="fill:rgb(121,85,72);"/>
    <g transform="matrix(1,0,0,1,-139.5,-183.72)">
        <path d="M831.93,536.65C831.93,536.646 831.93,536.642 831.93,536.638C831.93,531.234 836.376,526.788 841.78,526.788C844.046,526.788 846.243,527.569 848,529C846.131,526.681 843.308,525.33 840.33,525.33C834.926,525.33 830.48,529.776 830.48,535.18C830.48,538.158 831.831,540.981 834.15,542.85C832.717,541.102 831.932,538.911 831.93,536.65Z" style="fill:white;fill-opacity:0.05;fill-rule:nonzero;"/>
    </g>
    <circle cx="670.44" cy="328.68" r="9.86" style="fill:rgb(121,85,72);"/>
    <circle cx="680.26" cy="313.51" r="9.86" style="fill:rgb(121,85,72);"/>
    <g transform="matrix(1,0,0,1,-139.5,-183.72)">
        <path d="M801.6,513.91C801.619,508.514 806.064,504.085 811.46,504.085C813.69,504.085 815.855,504.841 817.6,506.23C815.731,503.911 812.908,502.56 809.93,502.56C804.526,502.56 800.08,507.006 800.08,512.41C800.08,515.388 801.431,518.211 803.75,520.08C802.349,518.33 801.59,516.152 801.6,513.91Z" style="fill:white;fill-opacity:0.05;fill-rule:nonzero;"/>
    </g>
    <circle cx="638.6" cy="336.26" r="9.86" style="fill:rgb(121,85,72);"/>
    <g transform="matrix(1,0,0,1,-139.5,-183.72)">
        <path d="M769.77,521.49C769.778,516.092 774.222,511.654 779.62,511.654C781.855,511.654 784.024,512.415 785.77,513.81C783.901,511.491 781.078,510.14 778.1,510.14C772.696,510.14 768.25,514.586 768.25,519.99C768.25,522.968 769.601,525.791 771.92,527.66C770.518,525.911 769.759,523.732 769.77,521.49Z" style="fill:white;fill-opacity:0.05;fill-rule:nonzero;"/>
    </g>
    <circle cx="618.89" cy="350.66" r="9.86" style="fill:rgb(121,85,72);"/>
    <g transform="matrix(1,0,0,1,-139.5,-183.72)">
        <path d="M750.05,535.9C750.064,530.5 754.51,526.065 759.91,526.065C762.14,526.065 764.305,526.821 766.05,528.21C764.181,525.891 761.358,524.54 758.38,524.54C752.976,524.54 748.53,528.986 748.53,534.39C748.53,537.368 749.881,540.191 752.2,542.06C750.8,540.313 750.041,538.138 750.05,535.9Z" style="fill:white;fill-opacity:0.05;fill-rule:nonzero;"/>
    </g>
    <circle cx="678.02" cy="355.97" r="9.86" style="fill:rgb(121,85,72);"/>
    <g transform="matrix(1,0,0,1,-139.5,-183.72)">
        <path d="M809.19,541.2C809.198,535.802 813.642,531.364 819.04,531.364C821.275,531.364 823.444,532.125 825.19,533.52C823.321,531.201 820.498,529.85 817.52,529.85C812.116,529.85 807.67,534.296 807.67,539.7C807.67,542.678 809.021,545.501 811.34,547.37C809.938,545.621 809.179,543.442 809.19,541.2Z" style="fill:white;fill-opacity:0.05;fill-rule:nonzero;"/>
    </g>
    <circle cx="700.01" cy="308.97" r="9.86" style="fill:rgb(121,85,72);"/>
    <g transform="matrix(1,0,0,1,-139.5,-183.72)">
        <path d="M831.17,494.2C831.178,488.802 835.622,484.364 841.02,484.364C843.255,484.364 845.424,485.125 847.17,486.52C845.301,484.201 842.478,482.85 839.5,482.85C834.096,482.85 829.65,487.296 829.65,492.7C829.65,495.678 831.001,498.501 833.32,500.37C831.923,498.618 831.164,496.441 831.17,494.2Z" style="fill:white;fill-opacity:0.05;fill-rule:nonzero;"/>
    </g>
    <circle cx="675.75" cy="299.11" r="9.86" style="fill:rgb(121,85,72);"/>
    <g transform="matrix(1,0,0,1,-139.5,-183.72)">
        <path d="M806.91,484.35C806.912,478.948 811.358,474.504 816.76,474.504C818.995,474.504 821.164,475.265 822.91,476.66C821.041,474.341 818.218,472.99 815.24,472.99C809.836,472.99 805.39,477.436 805.39,482.84C805.39,485.818 806.741,488.641 809.06,490.51C807.664,488.761 806.905,486.588 806.91,484.35Z" style="fill:white;fill-opacity:0.05;fill-rule:nonzero;"/>
    </g>
    <circle cx="650.73" cy="301.39" r="9.86" style="fill:rgb(121,85,72);"/>
    <g transform="matrix(1,0,0,1,-139.5,-183.72)">
        <path d="M781.89,486.62C781.909,481.224 786.354,476.795 791.75,476.795C793.98,476.795 796.145,477.551 797.89,478.94C796.021,476.621 793.198,475.27 790.22,475.27C784.816,475.27 780.37,479.716 780.37,485.12C780.37,488.098 781.721,490.921 784.04,492.79C782.639,491.04 781.88,488.862 781.89,486.62Z" style="fill:white;fill-opacity:0.05;fill-rule:nonzero;"/>
    </g>
    <circle cx="650.73" cy="317.31" r="9.86" style="fill:rgb(121,85,72);"/>
    <g transform="matrix(1,0,0,1,-139.5,-183.72)">
        <path d="M781.89,502.54C781.909,497.144 786.354,492.715 791.75,492.715C793.98,492.715 796.145,493.471 797.89,494.86C796.021,492.541 793.198,491.19 790.22,491.19C784.816,491.19 780.37,495.636 780.37,501.04C780.37,504.018 781.721,506.841 784.04,508.71C782.639,506.96 781.88,504.782 781.89,502.54Z" style="fill:white;fill-opacity:0.05;fill-rule:nonzero;"/>
    </g>
    <circle cx="691.67" cy="342.32" r="9.86" style="fill:rgb(121,85,72);"/>
    <g transform="matrix(1,0,0,1,-139.5,-183.72)">
        <path d="M822.83,527.56C822.83,527.558 822.83,527.556 822.83,527.553C822.83,522.155 827.272,517.713 832.67,517.713C834.91,517.713 837.084,518.478 838.83,519.88C836.963,517.518 834.113,516.138 831.103,516.138C825.699,516.138 821.253,520.585 821.253,525.988C821.253,529.001 822.635,531.853 825,533.72C823.597,531.974 822.831,529.8 822.83,527.56Z" style="fill:white;fill-opacity:0.05;fill-rule:nonzero;"/>
    </g>
    <circle cx="703.04" cy="337.02" r="9.86" style="fill:rgb(121,85,72);"/>
    <g transform="matrix(1,0,0,1,-139.5,-183.72)">
        <path d="M834.2,522.25C834.208,516.852 838.652,512.414 844.05,512.414C846.285,512.414 848.454,513.175 850.2,514.57C848.332,512.237 845.5,510.877 842.511,510.877C837.108,510.877 832.661,515.323 832.661,520.727C832.661,523.718 834.024,526.552 836.36,528.42C834.955,526.672 834.193,524.493 834.2,522.25Z" style="fill:white;fill-opacity:0.05;fill-rule:nonzero;"/>
    </g>
    <circle cx="638.6" cy="371.13" r="9.86" style="fill:rgb(121,85,72);"/>
    <circle cx="638.6" cy="371.13" r="9.86" style="fill:white;fill-opacity:0.1;"/>
    <g transform="matrix(1,0,0,1,-139.5,-183.72)">
        <path d="M769.77,556.36C769.778,550.962 774.222,546.524 779.62,546.524C781.855,546.524 784.024,547.285 785.77,548.68C783.901,546.361 781.078,545.01 778.1,545.01C772.696,545.01 768.25,549.456 768.25,554.86C768.25,557.838 769.601,560.661 771.92,562.53C770.518,560.781 769.759,558.602 769.77,556.36Z" style="fill:white;fill-opacity:0.05;fill-rule:nonzero;"/>
    </g>
    <circle cx="669.69" cy="365.82" r="9.86" style="fill:rgb(121,85,72);"/>
    <circle cx="669.69" cy="365.82" r="9.86" style="fill:white;fill-opacity:0.1;"/>
    <g transform="matrix(1,0,0,1,-139.5,-183.72)">
        <path d="M800.85,551.06C800.85,551.058 800.85,551.056 800.85,551.053C800.85,545.655 805.292,541.213 810.69,541.213C812.93,541.213 815.104,541.978 816.85,543.38C814.982,541.044 812.148,539.681 809.157,539.681C803.753,539.681 799.307,544.128 799.307,549.531C799.307,552.52 800.667,555.352 803,557.22C801.6,555.473 800.841,553.298 800.85,551.06Z" style="fill:white;fill-opacity:0.05;fill-rule:nonzero;"/>
    </g>
    <circle cx="658.31" cy="374.92" r="9.86" style="fill:rgb(121,85,72);"/>
    <circle cx="658.31" cy="374.92" r="9.86" style="fill:white;fill-opacity:0.1;"/>
    <g transform="matrix(1,0,0,1,-139.5,-183.72)">
        <path d="M789.48,560.15C789.488,554.752 793.932,550.314 799.33,550.314C801.565,550.314 803.734,551.075 805.48,552.47C803.611,550.151 800.788,548.8 797.81,548.8C792.406,548.8 787.96,553.246 787.96,558.65C787.96,561.628 789.311,564.451 791.63,566.32C790.228,564.571 789.469,562.392 789.48,560.15Z" style="fill:white;fill-opacity:0.05;fill-rule:nonzero;"/>
    </g>
    <circle cx="621.17" cy="382.5" r="9.86" style="fill:rgb(121,85,72);"/>
    <circle cx="621.17" cy="382.5" r="9.86" style="fill:white;fill-opacity:0.1;"/>
    <g transform="matrix(1,0,0,1,-139.5,-183.72)">
        <path d="M752.33,567.74C752.332,562.338 756.778,557.894 762.18,557.894C764.415,557.894 766.584,558.655 768.33,560.05C766.462,557.704 763.622,556.335 760.624,556.335C755.22,556.335 750.774,560.782 750.774,566.185C750.774,569.189 752.148,572.033 754.5,573.9C753.097,572.154 752.331,569.98 752.33,567.74Z" style="fill:white;fill-opacity:0.05;fill-rule:nonzero;"/>
    </g>
    <circle cx="631.02" cy="374.92" r="9.86" style="fill:rgb(121,85,72);"/>
    <circle cx="631.02" cy="374.92" r="9.86" style="fill:white;fill-opacity:0.1;"/>
    <g transform="matrix(1,0,0,1,-139.5,-183.72)">
        <path d="M762.18,560.15C762.188,554.752 766.632,550.314 772.03,550.314C774.265,550.314 776.434,551.075 778.18,552.47C776.312,550.137 773.48,548.777 770.491,548.777C765.088,548.777 760.641,553.223 760.641,558.627C760.641,561.618 762.004,564.452 764.34,566.32C762.935,564.572 762.173,562.393 762.18,560.15Z" style="fill:white;fill-opacity:0.05;fill-rule:nonzero;"/>
    </g>
    <circle cx="631.02" cy="358.24" r="9.86" style="fill:rgb(121,85,72);"/>
    <circle cx="631.02" cy="358.24" r="9.86" style="fill:white;fill-opacity:0.1;"/>
    <g transform="matrix(1,0,0,1,-139.5,-183.72)">
        <path d="M762.18,543.48C762.18,543.478 762.18,543.476 762.18,543.473C762.18,538.075 766.622,533.633 772.02,533.633C774.26,533.633 776.434,534.398 778.18,535.8C776.313,533.451 773.47,532.08 770.47,532.08C765.066,532.08 760.62,536.526 760.62,541.93C760.62,544.93 761.991,547.773 764.34,549.64C762.937,547.895 762.174,545.719 762.18,543.48Z" style="fill:white;fill-opacity:0.05;fill-rule:nonzero;"/>
    </g>
    <circle cx="649.98" cy="343.08" r="9.86" style="fill:rgb(121,85,72);"/>
    <circle cx="649.98" cy="343.08" r="9.86" style="fill:white;fill-opacity:0.1;"/>
    <g transform="matrix(1,0,0,1,-139.5,-183.72)">
        <path d="M781.14,528.32C781.142,522.918 785.588,518.474 790.99,518.474C793.225,518.474 795.394,519.235 797.14,520.63C795.271,518.311 792.448,516.96 789.47,516.96C784.066,516.96 779.62,521.406 779.62,526.81C779.62,529.788 780.971,532.611 783.29,534.48C781.89,532.733 781.131,530.558 781.14,528.32Z" style="fill:white;fill-opacity:0.05;fill-rule:nonzero;"/>
    </g>
    <circle cx="683.33" cy="380.23" r="9.86" style="fill:rgb(121,85,72);"/>
    <circle cx="683.33" cy="380.23" r="9.86" style="fill:white;fill-opacity:0.1;"/>
    <g transform="matrix(1,0,0,1,-139.5,-183.72)">
        <path d="M814.49,565.46C814.498,560.062 818.942,555.624 824.34,555.624C826.575,555.624 828.744,556.385 830.49,557.78C828.622,555.447 825.79,554.087 822.801,554.087C817.398,554.087 812.951,558.533 812.951,563.937C812.951,566.928 814.314,569.762 816.65,571.63C815.245,569.882 814.483,567.703 814.49,565.46Z" style="fill:white;fill-opacity:0.05;fill-rule:nonzero;"/>
    </g>
    <circle cx="710.62" cy="349.9" r="9.86" style="fill:rgb(121,85,72);"/>
    <circle cx="710.62" cy="349.9" r="9.86" style="fill:white;fill-opacity:0.1;"/>
    <g transform="matrix(1,0,0,1,-139.5,-183.72)">
        <path d="M841.78,535.14C841.78,535.138 841.78,535.136 841.78,535.133C841.78,529.735 846.222,525.293 851.62,525.293C853.86,525.293 856.034,526.058 857.78,527.46C855.917,525.04 853.03,523.62 849.976,523.62C844.572,523.62 840.126,528.066 840.126,533.47C840.126,536.539 841.56,539.438 844,541.3C842.575,539.563 841.791,537.387 841.78,535.14Z" style="fill:white;fill-opacity:0.05;fill-rule:nonzero;"/>
    </g>
    <circle cx="710.62" cy="304.42" r="9.86" style="fill:rgb(121,85,72);"/>
    <circle cx="710.62" cy="304.42" r="9.86" style="fill:white;fill-opacity:0.1;"/>
    <g transform="matrix(1,0,0,1,-139.5,-183.72)">
        <path d="M841.78,489.65C841.788,484.252 846.232,479.814 851.63,479.814C853.865,479.814 856.034,480.575 857.78,481.97C855.916,479.565 853.038,478.154 849.995,478.154C844.591,478.154 840.145,482.601 840.145,488.004C840.145,491.065 841.571,493.957 844,495.82C842.574,494.08 841.79,491.9 841.78,489.65Z" style="fill:white;fill-opacity:0.05;fill-rule:nonzero;"/>
    </g>
    <circle cx="720.48" cy="323.37" r="9.86" style="fill:rgb(121,85,72);"/>
    <circle cx="720.48" cy="323.37" r="9.86" style="fill:white;fill-opacity:0.1;"/>
    <g transform="matrix(1,0,0,1,-139.5,-183.72)">
        <path d="M851.64,508.61C851.642,503.208 856.088,498.764 861.49,498.764C863.725,498.764 865.894,499.525 867.64,500.92C865.771,498.601 862.948,497.25 859.97,497.25C854.566,497.25 850.12,501.696 850.12,507.1C850.12,510.078 851.471,512.901 853.79,514.77C852.39,513.023 851.631,510.848 851.64,508.61Z" style="fill:white;fill-opacity:0.05;fill-rule:nonzero;"/>
    </g>
    <circle cx="730.33" cy="337.77" r="9.86" style="fill:rgb(121,85,72);"/>
    <circle cx="730.33" cy="337.77" r="9.86" style="fill:white;fill-opacity:0.1;"/>
    <g transform="matrix(1,0,0,1,-139.5,-183.72)">
        <path d="M861.49,523C861.49,522.998 861.49,522.996 861.49,522.993C861.49,517.595 865.932,513.153 871.33,513.153C873.57,513.153 875.744,513.918 877.49,515.32C875.623,512.971 872.78,511.6 869.78,511.6C864.376,511.6 859.93,516.046 859.93,521.45C859.93,524.45 861.301,527.293 863.65,529.16C862.245,527.415 861.482,525.24 861.49,523Z" style="fill:white;fill-opacity:0.05;fill-rule:nonzero;"/>
    </g>
    <circle cx="683.33" cy="321.1" r="9.86" style="fill:rgb(121,85,72);"/>
    <circle cx="683.33" cy="321.1" r="9.86" style="fill:white;fill-opacity:0.1;"/>
    <g transform="matrix(1,0,0,1,-139.5,-183.72)">
        <path d="M814.49,506.33C814.498,500.932 818.942,496.494 824.34,496.494C826.575,496.494 828.744,497.255 830.49,498.65C828.622,496.317 825.79,494.957 822.801,494.957C817.398,494.957 812.951,499.403 812.951,504.807C812.951,507.798 814.314,510.632 816.65,512.5C815.245,510.752 814.483,508.573 814.49,506.33Z" style="fill:white;fill-opacity:0.05;fill-rule:nonzero;"/>
    </g>
    <circle cx="653.77" cy="328.68" r="9.86" style="fill:rgb(121,85,72);"/>
    <circle cx="653.77" cy="328.68" r="9.86" style="fill:white;fill-opacity:0.1;"/>
    <g transform="matrix(1,0,0,1,-139.5,-183.72)">
        <path d="M784.93,513.91C784.938,508.512 789.382,504.074 794.78,504.074C797.015,504.074 799.184,504.835 800.93,506.23C799.061,503.911 796.238,502.56 793.26,502.56C787.856,502.56 783.41,507.006 783.41,512.41C783.41,515.388 784.761,518.211 787.08,520.08C785.678,518.331 784.919,516.152 784.93,513.91Z" style="fill:white;fill-opacity:0.05;fill-rule:nonzero;"/>
    </g>
    <circle cx="672.72" cy="317.31" r="9.86" style="fill:rgb(121,85,72);"/>
    <circle cx="672.72" cy="317.31" r="9.86" style="fill:white;fill-opacity:0.1;"/>
    <g transform="matrix(1,0,0,1,-139.5,-183.72)">
        <path d="M803.88,502.54C803.888,497.142 808.332,492.704 813.73,492.704C815.965,492.704 818.134,493.465 819.88,494.86C818.011,492.541 815.188,491.19 812.21,491.19C806.806,491.19 802.36,495.636 802.36,501.04C802.36,504.018 803.711,506.841 806.03,508.71C804.628,506.961 803.869,504.782 803.88,502.54Z" style="fill:white;fill-opacity:0.05;fill-rule:nonzero;"/>
    </g>
    <circle cx="690.15" cy="308.97" r="9.86" style="fill:rgb(121,85,72);"/>
    <circle cx="690.15" cy="308.97" r="9.86" style="fill:white;fill-opacity:0.1;"/>
    <g transform="matrix(1,0,0,1,-139.5,-183.72)">
        <path d="M821.31,494.2C821.329,488.804 825.774,484.375 831.17,484.375C833.4,484.375 835.565,485.131 837.31,486.52C835.441,484.201 832.618,482.85 829.64,482.85C824.236,482.85 819.79,487.296 819.79,492.7C819.79,495.678 821.141,498.501 823.46,500.37C822.059,498.62 821.3,496.442 821.31,494.2Z" style="fill:white;fill-opacity:0.05;fill-rule:nonzero;"/>
    </g>
    <circle cx="640.88" cy="317.31" r="9.86" style="fill:rgb(121,85,72);"/>
    <circle cx="640.88" cy="317.31" r="9.86" style="fill:white;fill-opacity:0.1;"/>
    <g transform="matrix(1,0,0,1,-139.5,-183.72)">
        <path d="M772,502.54C772.008,497.142 776.452,492.704 781.85,492.704C784.085,492.704 786.254,493.465 788,494.86C786.131,492.541 783.308,491.19 780.33,491.19C774.926,491.19 770.48,495.636 770.48,501.04C770.48,504.018 771.831,506.841 774.15,508.71C772.753,506.958 771.994,504.781 772,502.54Z" style="fill:white;fill-opacity:0.05;fill-rule:nonzero;"/>
    </g>
    <circle cx="675.75" cy="349.14" r="9.86" style="fill:rgb(121,85,72);"/>
    <circle cx="675.75" cy="349.14" r="9.86" style="fill:white;fill-opacity:0.1;"/>
    <g transform="matrix(1,0,0,1,-139.5,-183.72)">
        <path d="M806.91,534.38C806.91,534.378 806.91,534.376 806.91,534.373C806.91,528.975 811.352,524.533 816.75,524.533C818.99,524.533 821.164,525.298 822.91,526.7C821.041,524.381 818.218,523.03 815.24,523.03C809.836,523.03 805.39,527.476 805.39,532.88C805.39,535.858 806.741,538.681 809.06,540.55C807.664,538.797 806.905,536.621 806.91,534.38Z" style="fill:white;fill-opacity:0.05;fill-rule:nonzero;"/>
    </g>
    <circle cx="634.06" cy="348.39" r="9.86" style="fill:rgb(121,85,72);"/>
    <circle cx="634.06" cy="348.39" r="9.86" style="fill:white;fill-opacity:0.1;"/>
    <g transform="matrix(1,0,0,1,-139.5,-183.72)">
        <path d="M765.22,533.62C765.228,528.222 769.672,523.784 775.07,523.784C777.305,523.784 779.474,524.545 781.22,525.94C779.351,523.621 776.528,522.27 773.55,522.27C768.146,522.27 763.7,526.716 763.7,532.12C763.7,535.098 765.051,537.921 767.37,539.79C765.968,538.041 765.209,535.862 765.22,533.62Z" style="fill:white;fill-opacity:0.05;fill-rule:nonzero;"/>
    </g>
    <circle cx="697.73" cy="362.79" r="9.86" style="fill:rgb(121,85,72);"/>
    <circle cx="697.73" cy="362.79" r="9.86" style="fill:white;fill-opacity:0.1;"/>
    <g transform="matrix(1,0,0,1,-139.5,-183.72)">
        <path d="M828.9,548C828.902,542.598 833.348,538.154 838.75,538.154C840.985,538.154 843.154,538.915 844.9,540.31C843.031,537.991 840.208,536.64 837.23,536.64C831.826,536.64 827.38,541.086 827.38,546.49C827.38,549.468 828.731,552.291 831.05,554.16C829.65,552.413 828.891,550.238 828.9,548Z" style="fill:white;fill-opacity:0.05;fill-rule:nonzero;"/>
    </g>
    <circle cx="712.9" cy="368.1" r="9.86" style="fill:rgb(121,85,72);"/>
    <circle cx="712.9" cy="368.1" r="9.86" style="fill:white;fill-opacity:0.1;"/>
    <g transform="matrix(1,0,0,1,-139.5,-183.72)">
        <path d="M844.06,553.33C844.068,547.932 848.512,543.494 853.91,543.494C856.145,543.494 858.314,544.255 860.06,545.65C858.191,543.331 855.368,541.98 852.39,541.98C846.986,541.98 842.54,546.426 842.54,551.83C842.54,554.808 843.891,557.631 846.21,559.5C844.808,557.751 844.049,555.572 844.06,553.33Z" style="fill:white;fill-opacity:0.05;fill-rule:nonzero;"/>
    </g>
    <circle cx="725.78" cy="377.95" r="9.86" style="fill:rgb(121,85,72);"/>
    <circle cx="725.78" cy="377.95" r="9.86" style="fill:white;fill-opacity:0.1;"/>
    <g transform="matrix(1,0,0,1,-139.5,-183.72)">
        <path d="M856.94,563.19C856.948,557.792 861.392,553.354 866.79,553.354C869.025,553.354 871.194,554.115 872.94,555.51C871.072,553.174 868.238,551.811 865.247,551.811C859.843,551.811 855.397,556.258 855.397,561.661C855.397,564.65 856.757,567.482 859.09,569.35C857.69,567.603 856.931,565.428 856.94,563.19Z" style="fill:white;fill-opacity:0.05;fill-rule:nonzero;"/>
    </g>
    <circle cx="747.01" cy="365.06" r="9.86" style="fill:rgb(121,85,72);"/>
    <circle cx="747.01" cy="365.06" r="9.86" style="fill:white;fill-opacity:0.1;"/>
    <g transform="matrix(1,0,0,1,-139.5,-183.72)">
        <path d="M878.17,550.3C878.17,550.298 878.17,550.296 878.17,550.293C878.17,544.895 882.612,540.453 888.01,540.453C890.25,540.453 892.424,541.218 894.17,542.62C892.301,540.301 889.478,538.95 886.5,538.95C881.096,538.95 876.65,543.396 876.65,548.8C876.65,551.778 878.001,554.601 880.32,556.47C878.924,554.717 878.165,552.541 878.17,550.3Z" style="fill:white;fill-opacity:0.05;fill-rule:nonzero;"/>
    </g>
    <circle cx="735.64" cy="353.69" r="9.86" style="fill:rgb(121,85,72);"/>
    <circle cx="735.64" cy="353.69" r="9.86" style="fill:white;fill-opacity:0.1;"/>
    <g transform="matrix(1,0,0,1,-139.5,-183.72)">
        <path d="M866.8,538.93C866.8,538.928 866.8,538.926 866.8,538.923C866.8,533.525 871.242,529.083 876.64,529.083C878.88,529.083 881.054,529.848 882.8,531.25C880.935,528.853 878.063,527.448 875.025,527.448C869.622,527.448 865.175,531.894 865.175,537.298C865.175,540.345 866.589,543.226 869,545.09C867.585,543.349 866.808,541.174 866.8,538.93Z" style="fill:white;fill-opacity:0.05;fill-rule:nonzero;"/>
    </g>
    <circle cx="665.89" cy="291.53" r="9.86" style="fill:rgb(121,85,72);"/>
    <circle cx="665.89" cy="291.53" r="9.86" style="fill:white;fill-opacity:0.1;"/>
    <g transform="matrix(1,0,0,1,-139.5,-183.72)">
        <path d="M797.06,476.77C797.062,471.368 801.508,466.924 806.91,466.924C809.145,466.924 811.314,467.685 813.06,469.08C811.191,466.761 808.368,465.41 805.39,465.41C799.986,465.41 795.54,469.856 795.54,475.26C795.54,478.238 796.891,481.061 799.21,482.93C797.81,481.183 797.051,479.008 797.06,476.77Z" style="fill:white;fill-opacity:0.05;fill-rule:nonzero;"/>
    </g>
    <circle cx="626.47" cy="335.5" r="9.86" style="fill:rgb(121,85,72);"/>
    <circle cx="626.47" cy="335.5" r="9.86" style="fill:white;fill-opacity:0.1;"/>
    <g transform="matrix(1,0,0,1,-139.5,-183.72)">
        <path d="M757.64,520.73C757.648,515.332 762.092,510.894 767.49,510.894C769.725,510.894 771.894,511.655 773.64,513.05C771.771,510.731 768.948,509.38 765.97,509.38C760.566,509.38 756.12,513.826 756.12,519.23C756.12,522.208 757.471,525.031 759.79,526.9C758.388,525.151 757.629,522.972 757.64,520.73Z" style="fill:white;fill-opacity:0.05;fill-rule:nonzero;"/>
    </g>
    <circle cx="611.31" cy="363.55" r="9.86" style="fill:rgb(121,85,72);"/>
    <circle cx="611.31" cy="363.55" r="9.86" style="fill:white;fill-opacity:0.1;"/>
    <g transform="matrix(1,0,0,1,-139.5,-183.72)">
        <path d="M742.47,548.78C742.478,543.382 746.922,538.944 752.32,538.944C754.555,538.944 756.724,539.705 758.47,541.1C756.6,538.825 753.805,537.505 750.861,537.505C745.457,537.505 741.011,541.951 741.011,547.355C741.011,550.319 742.349,553.131 744.65,555C743.227,553.241 742.457,551.042 742.47,548.78Z" style="fill:white;fill-opacity:0.05;fill-rule:nonzero;"/>
    </g>
    <circle cx="658.31" cy="353.69" r="9.86" style="fill:rgb(121,85,72);"/>
    <circle cx="658.31" cy="353.69" r="9.86" style="fill:white;fill-opacity:0.1;"/>
    <g transform="matrix(1,0,0,1,-139.5,-183.72)">
        <path d="M789.48,538.93C789.48,538.928 789.48,538.926 789.48,538.923C789.48,533.525 793.922,529.083 799.32,529.083C801.56,529.083 803.734,529.848 805.48,531.25C803.612,528.914 800.778,527.551 797.787,527.551C792.383,527.551 787.937,531.998 787.937,537.401C787.937,540.39 789.297,543.222 791.63,545.09C790.228,543.344 789.469,541.169 789.48,538.93Z" style="fill:white;fill-opacity:0.05;fill-rule:nonzero;"/>
    </g>
    <circle cx="659.83" cy="313.52" r="9.86" style="fill:rgb(121,85,72);"/>
    <circle cx="659.83" cy="313.52" r="9.86" style="fill:white;fill-opacity:0.1;"/>
    <g transform="matrix(1,0,0,1,-139.5,-183.72)">
        <path d="M791,498.75C791.008,493.352 795.452,488.914 800.85,488.914C803.085,488.914 805.254,489.675 807,491.07C805.131,488.751 802.308,487.4 799.33,487.4C793.926,487.4 789.48,491.846 789.48,497.25C789.48,500.228 790.831,503.051 793.15,504.92C791.753,503.168 790.994,500.991 791,498.75Z" style="fill:white;fill-opacity:0.05;fill-rule:nonzero;"/>
    </g>
    <circle cx="663.62" cy="302.9" r="9.86" style="fill:rgb(121,85,72);"/>
    <circle cx="663.62" cy="302.9" r="9.86" style="fill:white;fill-opacity:0.1;"/>
    <g transform="matrix(1,0,0,1,-139.5,-183.72)">
        <path d="M794.78,488.14C794.78,488.138 794.78,488.136 794.78,488.133C794.78,482.735 799.222,478.293 804.62,478.293C806.86,478.293 809.034,479.058 810.78,480.46C808.917,478.04 806.03,476.62 802.976,476.62C797.572,476.62 793.126,481.066 793.126,486.47C793.126,489.539 794.56,492.438 797,494.3C795.579,492.561 794.795,490.386 794.78,488.14Z" style="fill:white;fill-opacity:0.05;fill-rule:nonzero;"/>
    </g>
    <circle cx="650.73" cy="365.06" r="9.86" style="fill:rgb(121,85,72);"/>
    <g transform="matrix(1,0,0,1,-139.5,-183.72)">
        <path d="M781.89,550.3C781.898,544.902 786.342,540.464 791.74,540.464C793.975,540.464 796.144,541.225 797.89,542.62C796.021,540.301 793.198,538.95 790.22,538.95C784.816,538.95 780.37,543.396 780.37,548.8C780.37,551.778 781.721,554.601 784.04,556.47C782.64,554.719 781.881,552.541 781.89,550.3Z" style="fill:white;fill-opacity:0.05;fill-rule:nonzero;"/>
    </g>
    <circle cx="625.72" cy="324.13" r="9.86" style="fill:rgb(121,85,72);"/>
    <g transform="matrix(1,0,0,1,-139.5,-183.72)">
        <path d="M756.88,509.36C756.888,503.962 761.332,499.524 766.73,499.524C768.965,499.524 771.134,500.285 772.88,501.68C771.011,499.361 768.188,498.01 765.21,498.01C759.806,498.01 755.36,502.456 755.36,507.86C755.36,510.838 756.711,513.661 759.03,515.53C757.628,513.781 756.869,511.602 756.88,509.36Z" style="fill:white;fill-opacity:0.05;fill-rule:nonzero;"/>
    </g>
    <circle cx="637.85" cy="352.94" r="9.86" style="fill:rgb(121,85,72);"/>
    <g transform="matrix(1,0,0,1,-139.5,-183.72)">
        <path d="M769,538.17C769.008,532.772 773.452,528.334 778.85,528.334C781.085,528.334 783.254,529.095 785,530.49C783.131,528.171 780.308,526.82 777.33,526.82C771.926,526.82 767.48,531.266 767.48,536.67C767.48,539.648 768.831,542.471 771.15,544.34C769.748,542.591 768.989,540.412 769,538.17Z" style="fill:white;fill-opacity:0.05;fill-rule:nonzero;"/>
    </g>
    <circle cx="673.48" cy="281.68" r="9.86" style="fill:rgb(121,85,72);"/>
    <g transform="matrix(1,0,0,1,-139.5,-183.72)">
        <path d="M804.64,466.91C804.648,461.512 809.092,457.074 814.49,457.074C816.725,457.074 818.894,457.835 820.64,459.23C818.771,456.911 815.948,455.56 812.97,455.56C807.566,455.56 803.12,460.006 803.12,465.41C803.12,468.388 804.471,471.211 806.79,473.08C805.388,471.331 804.629,469.152 804.64,466.91Z" style="fill:white;fill-opacity:0.05;fill-rule:nonzero;"/>
    </g>
    <circle cx="672.72" cy="303.66" r="9.86" style="fill:rgb(121,85,72);"/>
    <g transform="matrix(1,0,0,1,-139.5,-183.72)">
        <path d="M803.88,488.9C803.882,483.498 808.328,479.054 813.73,479.054C815.965,479.054 818.134,479.815 819.88,481.21C818.011,478.891 815.188,477.54 812.21,477.54C806.806,477.54 802.36,481.986 802.36,487.39C802.36,490.368 803.711,493.191 806.03,495.06C804.63,493.313 803.871,491.138 803.88,488.9Z" style="fill:white;fill-opacity:0.05;fill-rule:nonzero;"/>
    </g>
    <circle cx="690.15" cy="296.08" r="9.86" style="fill:rgb(121,85,72);"/>
    <g transform="matrix(1,0,0,1,-139.5,-183.72)">
        <path d="M821.31,481.31C821.329,475.914 825.774,471.485 831.17,471.485C833.4,471.485 835.565,472.241 837.31,473.63C835.441,471.311 832.618,469.96 829.64,469.96C824.236,469.96 819.79,474.406 819.79,479.81C819.79,482.788 821.141,485.611 823.46,487.48C822.059,485.73 821.3,483.552 821.31,481.31Z" style="fill:white;fill-opacity:0.05;fill-rule:nonzero;"/>
    </g>
    <circle cx="682.57" cy="338.53" r="9.86" style="fill:rgb(121,85,72);"/>
    <circle cx="687.92" cy="334.07" r="9.86" style="fill:rgb(121,85,72);"/>
    <g transform="matrix(1,0,0,1,-139.5,-183.72)">
        <path d="M813.73,523.77C813.73,523.768 813.73,523.766 813.73,523.763C813.73,518.365 818.172,513.923 823.57,513.923C825.81,513.923 827.984,514.688 829.73,516.09C827.863,513.741 825.02,512.37 822.02,512.37C816.616,512.37 812.17,516.816 812.17,522.22C812.17,525.22 813.541,528.063 815.89,529.93C814.487,528.185 813.724,526.009 813.73,523.77Z" style="fill:white;fill-opacity:0.05;fill-rule:nonzero;"/>
    </g>
    <circle cx="677.27" cy="365.82" r="9.86" style="fill:rgb(121,85,72);"/>
    <g transform="matrix(1,0,0,1,-139.5,-183.72)">
        <path d="M808.43,551.06C808.43,551.058 808.43,551.056 808.43,551.053C808.43,545.655 812.872,541.213 818.27,541.213C820.51,541.213 822.684,541.978 824.43,543.38C822.562,541.044 819.728,539.681 816.737,539.681C811.333,539.681 806.887,544.128 806.887,549.531C806.887,552.52 808.247,555.352 810.58,557.22C809.18,555.473 808.421,553.298 808.43,551.06Z" style="fill:white;fill-opacity:0.05;fill-rule:nonzero;"/>
    </g>
    <circle cx="681.06" cy="346.11" r="9.86" style="fill:rgb(121,85,72);"/>
    <g transform="matrix(1,0,0,1,-139.5,-183.72)">
        <path d="M812.22,531.35C812.22,531.348 812.22,531.346 812.22,531.343C812.22,525.945 816.662,521.503 822.06,521.503C824.3,521.503 826.474,522.268 828.22,523.67C826.352,521.334 823.518,519.971 820.527,519.971C815.123,519.971 810.677,524.418 810.677,529.821C810.677,532.81 812.037,535.642 814.37,537.51C812.97,535.763 812.211,533.588 812.22,531.35Z" style="fill:white;fill-opacity:0.05;fill-rule:nonzero;"/>
    </g>
    <circle cx="698.49" cy="329.43" r="9.86" style="fill:rgb(121,85,72);"/>
    <circle cx="750.23" cy="351.74" r="9.86" style="fill:rgb(121,85,72);"/>
    <g transform="matrix(1,0,0,1,-139.5,-183.72)">
        <path d="M829.65,514.67C829.65,514.668 829.65,514.666 829.65,514.663C829.65,509.265 834.092,504.823 839.49,504.823C841.73,504.823 843.904,505.588 845.65,506.99C843.782,504.657 840.95,503.297 837.961,503.297C832.558,503.297 828.111,507.743 828.111,513.147C828.111,516.138 829.474,518.972 831.81,520.84C830.407,519.091 829.644,516.913 829.65,514.67Z" style="fill:white;fill-opacity:0.05;fill-rule:nonzero;"/>
    </g>
    <circle cx="688.64" cy="355.97" r="9.86" style="fill:rgb(121,85,72);"/>
    <g transform="matrix(1,0,0,1,-139.5,-183.72)">
        <path d="M819.8,541.2C819.808,535.802 824.252,531.364 829.65,531.364C831.885,531.364 834.054,532.125 835.8,533.52C833.934,531.138 831.071,529.743 828.045,529.743C822.641,529.743 818.195,534.19 818.195,539.593C818.195,542.632 819.601,545.505 822,547.37C820.58,545.627 819.803,543.448 819.8,541.2Z" style="fill:white;fill-opacity:0.05;fill-rule:nonzero;"/>
    </g>
    <circle cx="719.72" cy="308.97" r="9.86" style="fill:rgb(121,85,72);"/>
    <g transform="matrix(1,0,0,1,-139.5,-183.72)">
        <path d="M850.88,494.2C850.888,488.802 855.332,484.364 860.73,484.364C862.965,484.364 865.134,485.125 866.88,486.52C865.011,484.201 862.188,482.85 859.21,482.85C853.806,482.85 849.36,487.296 849.36,492.7C849.36,495.678 850.711,498.501 853.03,500.37C851.633,498.618 850.874,496.441 850.88,494.2Z" style="fill:white;fill-opacity:0.05;fill-rule:nonzero;"/>
    </g>
    <circle cx="712.14" cy="323.37" r="9.86" style="fill:rgb(121,85,72);"/>
    <g transform="matrix(1,0,0,1,-139.5,-183.72)">
        <path d="M843.3,508.61C843.302,503.208 847.748,498.764 853.15,498.764C855.385,498.764 857.554,499.525 859.3,500.92C857.431,498.601 854.608,497.25 851.63,497.25C846.226,497.25 841.78,501.696 841.78,507.1C841.78,510.078 843.131,512.901 845.45,514.77C844.054,513.021 843.295,510.848 843.3,508.61Z" style="fill:white;fill-opacity:0.05;fill-rule:nonzero;"/>
    </g>
    <circle cx="718.2" cy="337.02" r="9.86" style="fill:rgb(121,85,72);"/>
    <g transform="matrix(1,0,0,1,-139.5,-183.72)">
        <path d="M849.36,522.25C849.368,516.852 853.812,512.414 859.21,512.414C861.445,512.414 863.614,513.175 865.36,514.57C863.492,512.237 860.66,510.877 857.671,510.877C852.268,510.877 847.821,515.323 847.821,520.727C847.821,523.718 849.184,526.552 851.52,528.42C850.115,526.672 849.353,524.493 849.36,522.25Z" style="fill:white;fill-opacity:0.05;fill-rule:nonzero;"/>
    </g>
    <circle cx="733.36" cy="365.06" r="9.86" style="fill:rgb(121,85,72);"/>
    <g transform="matrix(1,0,0,1,-139.5,-183.72)">
        <path d="M864.53,550.3C864.53,550.298 864.53,550.296 864.53,550.293C864.53,544.895 868.972,540.453 874.37,540.453C876.61,540.453 878.784,541.218 880.53,542.62C878.661,540.301 875.838,538.95 872.86,538.95C867.456,538.95 863.01,543.396 863.01,548.8C863.01,551.778 864.361,554.601 866.68,556.47C865.28,554.72 864.521,552.541 864.53,550.3Z" style="fill:white;fill-opacity:0.05;fill-rule:nonzero;"/>
    </g>
    <circle cx="745.49" cy="342.32" r="9.86" style="fill:rgb(121,85,72);"/>
    <circle cx="640.23" cy="328.94" r="9.86" style="fill:rgb(121,85,72);"/>
    <g transform="matrix(1,0,0,1,-139.5,-183.72)">
        <path d="M876.65,527.56C876.658,522.162 881.102,517.724 886.5,517.724C888.735,517.724 890.904,518.485 892.65,519.88C890.782,517.544 887.948,516.181 884.957,516.181C879.553,516.181 875.107,520.628 875.107,526.031C875.107,529.02 876.467,531.852 878.8,533.72C877.4,531.973 876.641,529.798 876.65,527.56Z" style="fill:white;fill-opacity:0.05;fill-rule:nonzero;"/>
    </g>
    <circle cx="720.48" cy="352.94" r="9.86" style="fill:rgb(121,85,72);"/>
    <g transform="matrix(1,0,0,1,-139.5,-183.72)">
        <path d="M851.64,538.17C851.648,532.772 856.092,528.334 861.49,528.334C863.725,528.334 865.894,529.095 867.64,530.49C865.771,528.171 862.948,526.82 859.97,526.82C854.566,526.82 850.12,531.266 850.12,536.67C850.12,539.648 851.471,542.471 853.79,544.34C852.388,542.591 851.629,540.412 851.64,538.17Z" style="fill:white;fill-opacity:0.05;fill-rule:nonzero;"/>
    </g>
    <circle cx="721.99" cy="365.06" r="9.86" style="fill:rgb(121,85,72);"/>
    <g transform="matrix(1,0,0,1,-139.5,-183.72)">
        <path d="M853.15,550.3C853.15,550.298 853.15,550.296 853.15,550.293C853.15,544.895 857.592,540.453 862.99,540.453C865.23,540.453 867.404,541.218 869.15,542.62C867.282,540.287 864.45,538.927 861.461,538.927C856.058,538.927 851.611,543.373 851.611,548.777C851.611,551.768 852.974,554.602 855.31,556.47C853.907,554.721 853.144,552.543 853.15,550.3Z" style="fill:white;fill-opacity:0.05;fill-rule:nonzero;"/>
    </g>
    <circle cx="693.19" cy="373.4" r="9.86" style="fill:rgb(121,85,72);"/>
    <g transform="matrix(1,0,0,1,-139.5,-183.72)">
        <path d="M824.35,558.64C824.35,558.638 824.35,558.636 824.35,558.633C824.35,553.235 828.792,548.793 834.19,548.793C836.43,548.793 838.604,549.558 840.35,550.96C838.482,548.624 835.648,547.261 832.657,547.261C827.253,547.261 822.807,551.708 822.807,557.111C822.807,560.1 824.167,562.932 826.5,564.8C825.098,563.054 824.339,560.879 824.35,558.64Z" style="fill:white;fill-opacity:0.05;fill-rule:nonzero;"/>
    </g>
    <circle cx="660.59" cy="341.56" r="9.86" style="fill:rgb(121,85,72);"/>
    <g transform="matrix(1,0,0,1,-139.5,-183.72)">
        <path d="M791.75,526.8C791.75,526.798 791.75,526.796 791.75,526.793C791.75,521.395 796.192,516.953 801.59,516.953C803.83,516.953 806.004,517.718 807.75,519.12C805.881,516.824 803.073,515.49 800.112,515.49C794.708,515.49 790.262,519.936 790.262,525.34C790.262,528.313 791.608,531.131 793.92,533C792.507,531.244 791.74,529.054 791.75,526.8Z" style="fill:white;fill-opacity:0.05;fill-rule:nonzero;"/>
    </g>
    <circle cx="670.44" cy="340.81" r="9.86" style="fill:rgb(121,85,72);"/>
    <g transform="matrix(1,0,0,1,-139.5,-183.72)">
        <path d="M801.6,526C801.619,520.604 806.064,516.175 811.46,516.175C813.69,516.175 815.855,516.931 817.6,518.32C815.731,516.001 812.908,514.65 809.93,514.65C804.526,514.65 800.08,519.096 800.08,524.5C800.08,527.478 801.431,530.301 803.75,532.17C802.349,530.42 801.59,528.242 801.6,526Z" style="fill:white;fill-opacity:0.05;fill-rule:nonzero;"/>
    </g>
    <circle cx="649.98" cy="352.94" r="9.86" style="fill:rgb(121,85,72);"/>
    <g transform="matrix(1,0,0,1,-139.5,-183.72)">
        <path d="M781.14,538.17C781.148,532.772 785.592,528.334 790.99,528.334C793.225,528.334 795.394,529.095 797.14,530.49C795.271,528.171 792.448,526.82 789.47,526.82C784.066,526.82 779.62,531.266 779.62,536.67C779.62,539.648 780.971,542.471 783.29,544.34C781.888,542.591 781.129,540.412 781.14,538.17Z" style="fill:white;fill-opacity:0.05;fill-rule:nonzero;"/>
    </g>
    <circle cx="735.64" cy="377.95" r="9.86" style="fill:rgb(121,85,72);"/>
    <circle cx="735.64" cy="377.95" r="9.86" style="fill:white;fill-opacity:0.1;"/>
    <g transform="matrix(1,0,0,1,-139.5,-183.72)">
        <path d="M866.8,563.19C866.8,563.188 866.8,563.186 866.8,563.183C866.8,557.785 871.242,553.343 876.64,553.343C878.88,553.343 881.054,554.108 882.8,555.51C880.935,553.113 878.063,551.708 875.025,551.708C869.622,551.708 865.175,556.154 865.175,561.558C865.175,564.605 866.589,567.486 869,569.35C867.586,567.608 866.809,565.434 866.8,563.19Z" style="fill:white;fill-opacity:0.05;fill-rule:nonzero;"/>
    </g>
    <circle cx="725.78" cy="342.32" r="9.86" style="fill:rgb(121,85,72);"/>
    <circle cx="725.78" cy="342.32" r="9.86" style="fill:white;fill-opacity:0.1;"/>
    <g transform="matrix(1,0,0,1,-139.5,-183.72)">
        <path d="M856.94,527.56C856.948,522.162 861.392,517.724 866.79,517.724C869.025,517.724 871.194,518.485 872.94,519.88C871.072,517.544 868.238,516.181 865.247,516.181C859.843,516.181 855.397,520.628 855.397,526.031C855.397,529.02 856.757,531.852 859.09,533.72C857.69,531.973 856.931,529.798 856.94,527.56Z" style="fill:white;fill-opacity:0.05;fill-rule:nonzero;"/>
    </g>
    <circle cx="697.73" cy="317.31" r="9.86" style="fill:rgb(121,85,72);"/>
    <circle cx="697.73" cy="317.31" r="9.86" style="fill:white;fill-opacity:0.1;"/>
    <g transform="matrix(1,0,0,1,-139.5,-183.72)">
        <path d="M828.9,502.54C828.908,497.142 833.352,492.704 838.75,492.704C840.985,492.704 843.154,493.465 844.9,494.86C843.031,492.541 840.208,491.19 837.23,491.19C831.826,491.19 827.38,495.636 827.38,501.04C827.38,504.018 828.731,506.841 831.05,508.71C829.648,506.961 828.889,504.782 828.9,502.54Z" style="fill:white;fill-opacity:0.05;fill-rule:nonzero;"/>
    </g>
    <path d="M789.92,429.9L572.39,429.9L595.58,353.15L766.73,353.15L789.92,429.9Z" style="fill:rgb(251,86,7);fill-rule:nonzero;"/>
    <path d="M602.11,359.68L760.52,360.01L759.22,353.48L595.58,353.15L572.39,429.9L580.89,429.9L602.11,359.68Z" style="fill:white;fill-opacity:0.05;fill-rule:nonzero;"/>
    <path d="M795.47,434.8L565.53,434.8L574.67,423.05L787.63,423.05L795.47,434.8Z" style="fill:rgb(108,99,255);fill-rule:nonzero;"/>
    <path d="M795.47,434.8L565.53,434.8L574.67,423.05L787.63,423.05L795.47,434.8Z" style="fill:rgb(251,86,7);fill-rule:nonzero;"/>
    <path d="M795.47,434.8L565.53,434.8L574.67,423.05L787.63,423.05L795.47,434.8Z" style="fill-opacity:0.1;fill-rule:nonzero;"/>
    <path d="M759.5,352.52L779.17,423.05L788.5,423.52L766.5,352.52L759.5,352.52Z" style="fill-opacity:0.05;fill-rule:nonzero;"/>
    <g transform="matrix(1,0,0,1,-139.5,-183.72)">
        <path d="M749.78,274.52C749.3,308.22 720.87,334.87 687.17,334.87L682.48,334.87C678.338,334.855 674.351,336.464 671.38,339.35C669.122,341.462 667.551,344.204 666.87,347.22C666.552,348.438 666.394,349.692 666.4,350.95L666.4,410.44C666.428,421.875 663.164,433.079 657,442.71C648.17,456.49 643,472.26 643,488.62C642.992,504.353 630.043,517.295 614.31,517.295C614.137,517.295 613.963,517.293 613.79,517.29C598.03,517 585.67,503.45 585.67,487.68L585.67,472.8L577.86,473.72L577.86,488.62C577.846,504.355 564.895,517.295 549.16,517.295C548.987,517.295 548.813,517.293 548.64,517.29C532.88,517 520.53,503.45 520.53,487.68L520.53,480.15C512.71,483.41 468.41,483.41 456.11,480.26L452.77,480L452.77,488.62C452.762,504.353 439.813,517.295 424.08,517.295C423.907,517.295 423.733,517.293 423.56,517.29C407.79,517 395.44,503.45 395.44,487.68L395.44,475.31L392.83,475.07L392.83,488.62C392.83,491.02 392.534,493.412 391.95,495.74C388.641,508.569 376.867,517.525 363.62,517.29C349.21,517.03 337.67,505.69 335.76,491.7C335.598,490.373 335.511,489.037 335.5,487.7L335.5,425.43C335.468,404.044 342.631,383.257 355.83,366.43C360.513,360.337 360.713,351.856 356.32,345.55C341.73,324.18 320.15,288.12 320.86,262.55C321.04,255.15 323.07,248.66 327.69,243.63C327.97,243.32 328.26,243.01 328.55,242.72C349.55,220.72 386.55,238.03 383.32,268.26C382.24,278.388 382.992,288.628 385.54,298.49C386.985,304.064 388.947,309.49 391.4,314.7C396.412,325.398 407.788,331.721 419.52,330.33C423.419,329.859 427.343,329.625 431.27,329.63L551.74,329.63C566.194,329.603 579.107,320.321 583.74,306.63C584.96,303.119 585.576,299.427 585.56,295.71L585.56,202C585.56,201.997 585.56,201.994 585.56,201.991C585.56,191.985 593.794,183.751 603.8,183.751C603.993,183.751 604.187,183.754 604.38,183.76C609.203,183.903 613.764,186.01 617,189.59C620.258,193.191 622.069,197.874 622.08,202.73C622.08,202.73 622.08,202.73 622.08,202.73C622.08,208.029 626.441,212.39 631.74,212.39C631.743,212.39 631.747,212.39 631.75,212.39L688.53,212.39C688.539,212.39 688.548,212.39 688.557,212.39C722.136,212.39 749.767,240.021 749.767,273.6C749.767,273.907 749.765,274.213 749.76,274.52L749.78,274.52Z" style="fill:rgb(243,173,85);fill-rule:nonzero;"/>
    </g>
    <g transform="matrix(1,0,0,1,-139.5,-183.72)">
        <path d="M391.89,495.74C388.581,508.569 376.807,517.525 363.56,517.29C349.15,517.03 337.61,505.69 335.7,491.7C353.06,487 377.11,483.78 391.89,495.74Z" style="fill:rgb(251,220,163);fill-rule:nonzero;"/>
    </g>
    <g transform="matrix(1,0,0,1,-139.5,-183.72)">
        <path d="M451.82,495.74C448.518,508.569 436.745,517.528 423.5,517.29C409.09,517.03 397.5,505.69 395.64,491.7C413,487 437.05,483.78 451.82,495.74Z" style="fill:rgb(251,220,163);fill-rule:nonzero;"/>
    </g>
    <g transform="matrix(1,0,0,1,-139.5,-183.72)">
        <path d="M576.91,495.74C573.604,508.571 561.828,517.529 548.58,517.29C534.17,517.03 522.58,505.69 520.73,491.7C538.08,487 562.13,483.78 576.91,495.74Z" style="fill:rgb(251,220,163);fill-rule:nonzero;"/>
    </g>
    <g transform="matrix(1,0,0,1,-139.5,-183.72)">
        <path d="M642.06,495.74C638.751,508.569 626.977,517.525 613.73,517.29C599.32,517.03 587.73,505.69 585.87,491.7C603.23,487 627.28,483.78 642.06,495.74Z" style="fill:rgb(251,220,163);fill-rule:nonzero;"/>
    </g>
    <g transform="matrix(1,0,0,1,-139.5,-183.72)">
        <path d="M385.48,298.52C365.23,290.39 340.48,275.52 320.8,262.58C320.98,255.18 323.01,248.69 327.63,243.66C327.91,243.35 328.2,243.04 328.49,242.75C349.49,220.75 386.49,238.06 383.26,268.29C382.18,278.418 382.932,288.658 385.48,298.52Z" style="fill:rgb(251,220,163);fill-rule:nonzero;"/>
    </g>
    <g transform="matrix(1,0,0,1,-139.5,-183.72)">
        <path d="M410,329.84C410,329.84 465.75,400.02 557,329.66" style="fill:rgb(251,220,163);fill-rule:nonzero;"/>
    </g>
    <g transform="matrix(1,0,0,1,-139.5,-183.72)">
        <path d="M585.61,199.36C585.61,199.36 619.49,243.66 585.61,298.36" style="fill:rgb(251,220,163);fill-rule:nonzero;"/>
    </g>
    <g transform="matrix(1,0,0,1,-139.5,-183.72)">
        <path d="M666.4,350.51C666.4,350.51 636.56,387.58 666,417" style="fill:rgb(251,220,163);fill-rule:nonzero;"/>
    </g>
    <g transform="matrix(1,0,0,1,-139.5,-183.72)">
        <path d="M669,342.69C666.79,344.77 667.54,346.78 666.87,349.83L570,324.45C575.21,320.45 581.67,315.67 583.81,309.31C595.41,318.32 618.37,333.44 669,342.69Z" style="fill-opacity:0.1;fill-rule:nonzero;"/>
    </g>
    <g transform="matrix(1,0,0,1,-139.5,-183.72)">
        <path d="M671.38,339.35C669.122,341.462 667.551,344.204 666.87,347.22L572.43,322.6C577.703,318.538 581.657,313.005 583.79,306.7C595.41,315.72 620.74,330.1 671.38,339.35Z" style="fill:rgb(56,63,77);fill-rule:nonzero;"/>
    </g>
    <g transform="matrix(1,0,0,1,-139.5,-183.72)">
        <path d="M587.34,311.91C587.34,311.91 616.89,334.13 666.4,341" style="fill-opacity:0.1;fill-rule:nonzero;"/>
    </g>
    <g transform="matrix(1,0,0,1,-139.5,-183.72)">
        <path d="M587.34,309.31C587.34,309.31 616.89,331.53 666.4,338.41" style="fill:rgb(243,173,85);fill-rule:nonzero;"/>
    </g>
    <g transform="matrix(1,0,0,1,-139.5,-183.72)">
        <path d="M661.19,311.42C661.19,311.42 710.7,327.05 723.73,277.54L661.19,311.42Z" style="fill-opacity:0.1;fill-rule:nonzero;"/>
    </g>
    <g transform="matrix(1,0,0,1,-139.5,-183.72)">
        <path d="M661.19,308.81C661.19,308.81 710.7,324.45 723.73,274.94L661.19,308.81Z" style="fill:rgb(251,220,163);fill-rule:nonzero;"/>
    </g>
    <ellipse cx="610.29" cy="84.7" rx="5.21" ry="9.12" style="fill:rgb(56,63,77);"/>
    <g transform="matrix(1,0,0,1,-139.5,-183.72)">
        <path d="M355,456.05L365.42,372.66C365.42,372.66 334.14,422.17 355,456.05" style="fill-opacity:0.1;fill-rule:nonzero;"/>
    </g>
    <g transform="matrix(1,0,0,1,-139.5,-183.72)">
        <path d="M368,372.66C368,372.66 336.73,422.17 357.57,456.05L368,372.66Z" style="fill:rgb(251,220,163);fill-rule:nonzero;"/>
    </g>
    <defs>
        <linearGradient id="_Linear1" x1="0" y1="0" x2="1" y2="0" gradientUnits="userSpaceOnUse" gradientTransform="matrix(2.76158e-14,-451,451,2.76158e-14,460.5,532.56)"><stop offset="0" style="stop-color:rgb(128,128,128);stop-opacity:0.25"/><stop offset="0.54" style="stop-color:rgb(128,128,128);stop-opacity:0.12"/><stop offset="1" style="stop-color:rgb(128,128,128);stop-opacity:0.1"/></linearGradient>
        <linearGradient id="_Linear2" x1="0" y1="0" x2="1" y2="0" gradientUnits="userSpaceOnUse" gradientTransform="matrix(59049,0,0,59049,170434,92916.8)"><stop offset="0" style="stop-color:rgb(128,128,128);stop-opacity:0.25"/><stop offset="0.54" style="stop-color:rgb(128,128,128);stop-opacity:0.12"/><stop offset="1" style="stop-color:rgb(128,128,128);stop-opacity:0.1"/></linearGradient>
    </defs>
</svg>
