<?xml version="1.0" encoding="UTF-8" standalone="no"?>
<!DOCTYPE svg PUBLIC "-//W3C//DTD SVG 1.1//EN" "http://www.w3.org/Graphics/SVG/1.1/DTD/svg11.dtd">
<svg width="100%" height="100%" viewBox="0 0 1028 649" version="1.1" xmlns="http://www.w3.org/2000/svg" xmlns:xlink="http://www.w3.org/1999/xlink" xml:space="preserve" xmlns:serif="http://www.serif.com/" style="fill-rule:evenodd;clip-rule:evenodd;stroke-miterlimit:10;">
    <g transform="matrix(1,0,0,1,-86,-125.75)">
        <path d="M402.13,476L395.84,472.09C395.24,471.72 394.65,471.32 394.05,470.94C422.653,466.019 443.761,440.97 443.761,411.947C443.761,385.206 425.843,361.556 400.1,354.32L400.41,378.98L386.86,352.15L386.69,352.15C353.893,350.628 325.649,376.354 324.11,409.15C324.05,410.3 324.11,411.42 324.11,412.55C319.4,407.17 315.11,401.4 312.28,395.08C306.55,382.29 306.44,367.8 306.89,350.18C307.79,315.28 309.3,280.1 311.26,245.04C340.364,241.8 363.029,217.651 364.42,188.4C364.5,186.57 364.47,184.77 364.42,182.97C364.42,182.52 364.42,182.08 364.35,181.63C364.23,179.89 364.07,178.17 363.8,176.47C363.8,176.19 363.7,175.92 363.65,175.65C363.41,174.21 363.11,172.79 362.77,171.39C362.64,170.86 362.51,170.39 362.37,169.82C361.95,168.29 361.49,166.82 360.95,165.3C360.77,164.81 360.56,164.3 360.37,163.84C359.95,162.75 359.49,161.67 359,160.61C358.74,160.05 358.49,159.49 358.22,158.94C358.14,158.8 358.09,158.65 358.01,158.51C345.02,132.871 315.302,120.033 287.73,128.15L288.13,160.25L274.73,133.73C252.197,146.645 240.587,172.877 246.18,198.24L246.12,198.24C246.21,198.67 246.34,199.08 246.44,199.5C246.63,200.29 246.83,201.07 247.05,201.85C247.33,202.85 247.65,203.85 247.98,204.85C248.23,205.59 248.47,206.32 248.75,207.05C249.16,208.11 249.62,209.14 250.08,210.17C250.35,210.77 250.59,211.39 250.88,211.98C251.64,213.533 252.467,215.043 253.36,216.51C253.67,217.03 254.02,217.51 254.36,218.02C255,219.02 255.64,220.02 256.36,220.95C256.79,221.54 257.25,222.11 257.7,222.68C258.36,223.51 259.03,224.33 259.7,225.12C260.19,225.69 260.7,226.24 261.21,226.78C261.95,227.56 262.7,228.31 263.48,229.04C264,229.53 264.48,230.04 265.05,230.5C265.93,231.29 266.85,232.03 267.78,232.76C268.25,233.13 268.71,233.51 269.19,233.87C270.61,234.87 272.07,235.87 273.58,236.87C273.86,237.04 274.17,237.18 274.45,237.35C275.72,238.09 277,238.8 278.32,239.44C278.89,239.72 279.47,239.97 280.05,240.23C281.13,240.71 282.22,241.18 283.34,241.61L285.34,242.31C286.44,242.68 287.56,243.03 288.69,243.31C289.35,243.49 290.02,243.68 290.69,243.84C291.91,244.13 293.16,244.37 294.42,244.59L294.66,244.64C293.84,259.433 293.107,274.23 292.46,289.03C282.459,268.478 261.519,255.38 238.662,255.38C228.411,255.38 218.33,258.015 209.39,263.03L219.97,292.03L198.2,271.13C186.533,281.798 179.572,296.677 178.86,312.47C178.552,318.02 179.037,323.586 180.3,329C186.621,355.96 210.869,375.18 238.56,375.18C259.896,375.18 279.678,363.769 290.36,345.3C290.36,346.8 290.26,348.3 290.22,349.81C289.82,365.35 289.32,384.69 297.07,401.96C302.32,413.66 310.76,423.17 319.07,431.69C324.5,437.23 330.13,442.6 335.9,447.79C341.581,455.416 348.991,461.585 357.52,465.79C367,473 376.86,479.9 387,486.24L393.34,490.18C399.04,493.71 404.88,497.34 410.6,501.11C409.6,501.01 408.6,500.9 407.6,500.85C381.629,499.64 357.7,515.473 348.66,539.85L386.06,570.28L344.92,560.74C344.956,593.57 371.98,620.564 404.81,620.564C413.786,620.564 422.649,618.546 430.74,614.66L428,618.08C426.16,620.367 424.343,622.64 422.55,624.9C398.21,655.73 391.44,684.99 403.49,707.3L418.15,699.39C406.42,677.67 424.06,649.87 435.62,635.23C437.38,633.01 439.167,630.777 440.98,628.53C456.53,609.21 474.15,587.31 473.72,560.45C473,520 433.71,495.6 402.13,476Z" style="fill:rgb(242,242,242);fill-rule:nonzero;"/>
    </g>
    <g transform="matrix(1,0,0,1,-86,-125.75)">
        <path d="M801.89,561.51L805.69,559.14L806.77,558.44C789.462,555.479 776.683,540.327 776.683,522.768C776.683,506.59 787.531,492.284 803.11,487.92L802.92,502.83L811.12,486.61L811.22,486.61C831.058,485.689 848.143,501.252 849.07,521.09L849.07,523.09C851.963,519.944 854.373,516.385 856.22,512.53C859.69,504.79 859.76,496.03 859.48,485.38C859,464.31 858,443 856.85,421.83C839.247,419.877 825.537,405.271 824.7,387.58C824.65,386.48 824.7,385.38 824.7,384.3L824.7,383.48C824.77,382.43 824.87,381.39 825.03,380.37C825.03,380.2 825.09,380.04 825.12,379.87C825.27,379 825.45,378.14 825.65,377.29L825.89,376.29C826.15,375.37 826.43,374.46 826.75,373.56C826.86,373.26 826.99,372.97 827.1,372.68C827.36,372.02 827.64,371.37 827.93,370.68C828.09,370.34 828.24,370.01 828.41,369.68C828.41,369.6 828.48,369.51 828.53,369.42C836.384,353.909 854.365,346.147 871.04,351.07L870.79,370.48L878.9,354.48C892.526,362.285 899.546,378.146 896.16,393.48C896.1,393.74 896.02,393.98 895.96,394.24C895.85,394.72 895.73,395.19 895.59,395.66C895.45,396.13 895.23,396.86 895.03,397.45C894.83,398.04 894.73,398.34 894.57,398.78C894.32,399.42 894.04,400.05 893.76,400.67C893.6,401.03 893.45,401.4 893.28,401.76C892.82,402.7 892.28,403.61 891.78,404.5C891.59,404.81 891.38,405.11 891.18,405.42C890.8,406.02 890.4,406.61 889.98,407.19C889.72,407.54 889.44,407.89 889.17,408.19C888.77,408.7 888.37,409.19 887.95,409.67C887.53,410.15 887.34,410.34 887.03,410.67C886.72,411 886.13,411.59 885.66,412.04C885.35,412.34 885.04,412.64 884.71,412.92C884.18,413.4 883.62,413.85 883.06,414.29L882.21,414.96C881.35,415.59 880.47,416.19 879.55,416.75L879.02,417.04C878.26,417.49 877.48,417.91 876.68,418.31L875.68,418.78C875.02,419.07 874.36,419.36 873.68,419.61L872.49,420.04C871.82,420.27 871.15,420.47 870.49,420.66L869.28,420.98C868.54,421.16 867.78,421.3 867.02,421.44L866.87,421.44C867.37,430.38 867.817,439.327 868.21,448.28C874.255,435.859 886.91,427.943 900.724,427.943C906.929,427.943 913.031,429.54 918.44,432.58L912.05,450.11L925.21,437.47C932.263,443.923 936.474,452.92 936.91,462.47C937.08,465.83 936.771,469.197 935.99,472.47C932.167,488.774 917.502,500.398 900.756,500.398C887.854,500.398 875.891,493.498 869.43,482.33C869.43,483.23 869.49,484.15 869.51,485.06C869.76,494.45 870.06,506.15 865.37,516.59C862.2,523.67 857.09,529.42 852.04,534.59C848.747,537.923 845.353,541.17 841.86,544.33C838.425,548.937 833.945,552.662 828.79,555.2C823.05,559.62 817.113,563.757 810.98,567.61L807.14,569.99C803.7,572.12 800.14,574.32 796.7,576.6C797.31,576.54 797.92,576.47 798.53,576.44C814.233,575.707 828.704,585.274 834.18,600.01L811.56,618.41L836.44,612.64C836.418,632.495 820.075,648.82 800.22,648.82C794.792,648.82 789.433,647.6 784.54,645.25L786.22,647.34C787.33,648.72 788.44,650.09 789.52,651.46C804.24,670.1 808.33,687.8 801.04,701.29L792.18,696.5C799.27,683.37 788.6,666.56 781.61,657.7C780.55,656.36 779.46,655.01 778.37,653.7C768.97,642.02 758.31,628.78 758.57,612.53C759,588.08 782.79,573.34 801.89,561.51Z" style="fill:rgb(242,242,242);fill-rule:nonzero;"/>
    </g>
    <ellipse cx="514" cy="603.5" rx="514" ry="45" style="fill:rgb(242,242,242);"/>
    <g transform="matrix(0.725376,0,0,0.725376,264.811,59.7751)">
        <path d="M909.43,608.78C909.1,632.23 889.31,650.78 865.85,650.78L862.59,650.78C859.705,650.766 856.927,651.887 854.86,653.9C853.29,655.372 852.196,657.281 851.72,659.38C851.498,660.225 851.387,661.096 851.39,661.97L851.39,703.38C851.402,711.34 849.124,719.138 844.83,725.84C838.585,735.335 835.197,746.426 835.07,757.79L835.07,757.793C835.07,768.764 826.042,777.793 815.07,777.793C814.96,777.793 814.85,777.792 814.74,777.79C803.74,777.59 795.17,768.16 795.17,757.19L795.17,746.78L789.73,747.42L789.73,757.793C789.73,768.765 780.702,777.793 769.73,777.793C769.617,777.793 769.503,777.792 769.39,777.79C758.39,777.59 749.82,768.16 749.82,757.19L749.82,751.9C744.38,754.16 713.55,754.16 704.99,751.97L702.67,751.79L702.67,757.793C702.67,768.765 693.642,777.793 682.67,777.793C682.557,777.793 682.443,777.792 682.33,777.79C671.33,777.59 662.76,768.16 662.76,757.19L662.76,748.57L660.95,748.41L660.95,757.904C660.95,768.843 651.949,777.844 641.01,777.844C640.88,777.844 640.75,777.843 640.62,777.84C630.62,777.66 622.55,769.77 621.23,760.03C621.114,759.104 621.054,758.173 621.05,757.24L621.05,713.81C621.041,698.947 626.026,684.504 635.2,672.81C638.46,668.57 638.598,662.668 635.54,658.28C625.38,643.41 610.37,618.28 610.85,600.52C610.98,595.37 612.4,590.85 615.61,587.35C615.81,587.13 616.01,586.91 616.21,586.71C630.82,571.41 656.56,583.45 654.33,604.49C653.58,611.526 654.102,618.639 655.87,625.49C656.894,629.367 658.277,633.139 660,636.76C663.484,644.209 671.404,648.612 679.57,647.64C682.285,647.315 685.016,647.151 687.75,647.15L771.64,647.15C781.711,647.148 790.718,640.689 793.95,631.15C794.798,628.706 795.227,626.137 795.22,623.55L795.22,558.274C795.22,551.307 800.953,545.574 807.92,545.574C808.05,545.574 808.18,545.576 808.31,545.58C811.662,545.694 814.826,547.168 817.07,549.66C819.343,552.165 820.605,555.428 820.61,558.81C820.61,562.496 823.644,565.53 827.33,565.53L866.885,565.53C890.255,565.53 909.485,584.76 909.485,608.13C909.485,608.347 909.483,608.563 909.48,608.78L909.43,608.78Z" style="fill:rgb(243,173,85);fill-rule:nonzero;"/>
    </g>
    <g transform="matrix(0.725376,0,0,0.725376,264.811,59.7751)">
        <path d="M660.33,762.74C658.027,771.666 649.837,777.899 640.62,777.74C630.62,777.56 622.55,769.67 621.23,759.93C633.31,756.67 650.05,754.42 660.33,762.74Z" style="fill:rgb(251,220,163);fill-rule:nonzero;"/>
    </g>
    <g transform="matrix(0.725376,0,0,0.725376,264.811,59.7751)">
        <path d="M702.05,762.74C699.746,771.669 691.55,777.903 682.33,777.74C672.33,777.56 664.27,769.67 662.95,759.93C675,756.67 691.77,754.42 702.05,762.74Z" style="fill:rgb(251,220,163);fill-rule:nonzero;"/>
    </g>
    <g transform="matrix(0.725376,0,0,0.725376,264.811,59.7751)">
        <path d="M789.11,762.74C786.806,771.669 778.61,777.903 769.39,777.74C759.39,777.56 751.33,769.67 750.01,759.93C762.09,756.67 778.83,754.42 789.11,762.74Z" style="fill:rgb(251,220,163);fill-rule:nonzero;"/>
    </g>
    <g transform="matrix(0.725376,0,0,0.725376,264.811,59.7751)">
        <path d="M834.45,762.74C832.147,771.666 823.957,777.899 814.74,777.74C804.74,777.56 796.67,769.67 795.35,759.93C807.43,756.67 824.17,754.42 834.45,762.74Z" style="fill:rgb(251,220,163);fill-rule:nonzero;"/>
    </g>
    <g transform="matrix(0.725376,0,0,0.725376,264.811,59.7751)">
        <path d="M672.93,647.27C672.93,647.27 711.74,696.12 775.22,647.15" style="fill:rgb(251,220,163);fill-rule:nonzero;"/>
    </g>
    <g transform="matrix(0.725376,0,0,0.725376,264.811,59.7751)">
        <path d="M795.17,556.47C795.17,556.47 818.75,587.3 795.17,625.39" style="fill:rgb(251,220,163);fill-rule:nonzero;"/>
    </g>
    <g transform="matrix(0.725376,0,0,0.725376,264.811,59.7751)">
        <path d="M851.39,661.66C851.39,661.66 830.63,687.47 851.13,707.97" style="fill:rgb(251,220,163);fill-rule:nonzero;"/>
    </g>
    <g transform="matrix(0.725376,0,0,0.725376,264.811,59.7751)">
        <path d="M853.21,656.22C851.67,657.67 852.21,659.07 851.72,661.22L784.29,643.56C787.91,640.76 792.41,637.44 793.9,633.02C802,639.26 818,649.78 853.21,656.22Z" style="fill-opacity:0.1;fill-rule:nonzero;"/>
    </g>
    <g transform="matrix(0.725376,0,0,0.725376,264.811,59.7751)">
        <path d="M854.86,653.9C853.29,655.372 852.196,657.281 851.72,659.38L786,642.24C789.672,639.413 792.425,635.56 793.91,631.17C802,637.45 819.62,647.46 854.86,653.9Z" style="fill:rgb(56,63,77);fill-rule:nonzero;"/>
    </g>
    <g transform="matrix(0.725376,0,0,0.725376,264.811,59.7751)">
        <path d="M796.37,634.8C796.37,634.8 816.93,650.27 851.37,655.06" style="fill-opacity:0.1;fill-rule:nonzero;"/>
    </g>
    <g transform="matrix(0.725376,0,0,0.725376,264.811,59.7751)">
        <path d="M796.37,633C796.37,633 816.93,648.46 851.37,653.25" style="fill:rgb(243,173,85);fill-rule:nonzero;"/>
    </g>
    <g transform="matrix(0.725376,0,0,0.725376,264.811,59.7751)">
        <path d="M847.77,634.46C847.77,634.46 882.23,645.34 891.3,610.88L847.77,634.46Z" style="fill-opacity:0.1;fill-rule:nonzero;"/>
    </g>
    <g transform="matrix(0.725376,0,0,0.725376,264.811,59.7751)">
        <path d="M847.77,632.64C847.77,632.64 882.23,643.53 891.3,609.06L847.77,632.64Z" style="fill:rgb(251,220,163);fill-rule:nonzero;"/>
    </g>
    <g transform="matrix(0.725376,0,0,0.725376,472.951,132.922)">
        <ellipse cx="622.5" cy="503.69" rx="3.63" ry="6.35" style="fill:rgb(56,63,77);"/>
    </g>
    <g transform="matrix(0.725376,0,0,0.725376,264.811,59.7751)">
        <path d="M634.65,735.12L641.91,677.12C641.91,677.12 620.14,711.58 634.65,735.12" style="fill-opacity:0.1;fill-rule:nonzero;"/>
    </g>
    <g transform="matrix(0.725376,0,0,0.725376,264.811,59.7751)">
        <path d="M643.72,677.08C643.72,677.08 621.96,711.54 636.47,735.08L643.72,677.08Z" style="fill:rgb(251,220,163);fill-rule:nonzero;"/>
    </g>
    <g transform="matrix(1,0,0,1,-86,-125.75)">
        <path d="M195.4,725.42C192.4,719.91 195.8,713.15 199.69,708.24C203.58,703.33 208.3,698.24 208.2,691.95C208.05,682.95 198.5,677.64 190.87,672.86C185.204,669.323 179.981,665.124 175.31,660.35C173.352,658.515 171.734,656.348 170.53,653.95C168.95,650.43 168.99,646.43 169.09,642.58C169.43,629.74 170.067,616.91 171,604.09" style="fill:none;fill-rule:nonzero;stroke:rgb(63,61,86);stroke-width:4px;"/>
    </g>
    <g transform="matrix(1,0,0,1,-86,-125.75)">
        <path d="M156.49,603.39C156.706,598.618 159.35,594.274 163.49,591.89L166.63,598.11L166.53,590.58C168.032,590.14 169.596,589.951 171.16,590.02C178.57,590.387 184.467,596.584 184.467,604.003C184.467,611.683 178.147,618.003 170.467,618.003C162.786,618.003 156.467,611.683 156.467,604.003C156.467,603.798 156.471,603.594 156.48,603.39L156.49,603.39Z" style="fill:rgb(87,184,148);fill-rule:nonzero;"/>
    </g>
    <g transform="matrix(1,0,0,1,-86,-125.75)">
        <path d="M181.52,698.38C183.919,703.029 188.73,705.961 193.962,705.961C201.642,705.961 207.962,699.641 207.962,691.961C207.962,684.281 201.642,677.961 193.962,677.961C188.126,677.961 182.875,681.61 180.84,687.08L189.61,694.21L180,692C179.994,694.217 180.515,696.404 181.52,698.38Z" style="fill:rgb(87,184,148);fill-rule:nonzero;"/>
    </g>
    <g transform="matrix(1,0,0,1,-86,-125.75)">
        <path d="M188.45,671.13C188.778,671.153 189.107,671.165 189.436,671.165C197.117,671.165 203.436,664.845 203.436,657.165C203.436,650.788 199.079,645.178 192.9,643.6L192.98,649.38L189.8,643.09C189.572,643.079 189.344,643.073 189.116,643.073C181.671,643.073 175.461,649.012 175.13,656.45C175.048,658.069 175.251,659.691 175.73,661.24C177.454,666.877 182.562,670.849 188.45,671.13Z" style="fill:rgb(87,184,148);fill-rule:nonzero;"/>
    </g>
    <g transform="matrix(1,0,0,1,-86,-125.75)">
        <path d="M154.38,648.46C154.551,648.466 154.723,648.469 154.894,648.469C162.574,648.469 168.894,642.15 168.894,634.469C168.894,626.789 162.574,620.469 154.894,620.469C152.544,620.469 150.231,621.061 148.17,622.19L150.65,628.99L145.55,624.09C142.818,626.592 141.188,630.079 141.02,633.78C140.953,635.08 141.071,636.383 141.37,637.65C142.789,643.744 148.13,648.181 154.38,648.46Z" style="fill:rgb(87,184,148);fill-rule:nonzero;"/>
    </g>
    <g transform="matrix(1,0,0,1,-86,-125.75)">
        <path d="M158.38,607.13C161.62,607.48 164.77,608.49 168.02,608.69C171.27,608.89 174.84,608.12 176.9,605.59C178,604.23 178.56,602.51 179.49,601.02C180.378,599.636 181.594,598.492 183.03,597.69C183.935,599.579 184.406,601.647 184.406,603.742C184.406,611.422 178.086,617.742 170.406,617.742C163.951,617.742 158.292,613.278 156.79,607C157.317,607 157.847,607.043 158.38,607.13Z" style="fill-opacity:0.1;fill-rule:nonzero;"/>
    </g>
    <g transform="matrix(1,0,0,1,-86,-125.75)">
        <path d="M154.38,648.46C154.616,648.472 154.853,648.478 155.089,648.478C162.77,648.478 169.089,642.158 169.089,634.478C169.089,632.396 168.625,630.34 167.73,628.46C166.616,629.209 165.659,630.166 164.91,631.28C163.91,632.79 163.3,634.54 162.13,635.92C159.94,638.49 156.21,639.33 152.82,639.18C149.43,639.03 146.16,638.06 142.82,637.75C142.35,637.75 141.88,637.68 141.4,637.67C142.824,643.746 148.146,648.17 154.38,648.46Z" style="fill-opacity:0.1;fill-rule:nonzero;"/>
    </g>
    <g transform="matrix(1,0,0,1,-86,-125.75)">
        <path d="M188.45,671.13C188.686,671.142 188.922,671.148 189.158,671.148C196.838,671.148 203.158,664.828 203.158,657.148C203.158,655.155 202.732,653.185 201.91,651.37C200.746,652.13 199.729,653.096 198.91,654.22C197.82,655.76 197.14,657.54 195.91,658.96C193.54,661.59 189.56,662.52 185.98,662.44C182.4,662.36 179.15,661.51 175.7,661.24C177.428,666.887 182.551,670.861 188.45,671.13Z" style="fill-opacity:0.1;fill-rule:nonzero;"/>
    </g>
    <g transform="matrix(1,0,0,1,-86,-125.75)">
        <path d="M181.52,698.38C183.773,703.416 188.798,706.672 194.315,706.672C202.005,706.672 208.332,700.345 208.332,692.655C208.332,690.682 207.916,688.731 207.11,686.93C205.952,687.687 204.913,688.614 204.03,689.68C202.69,691.3 201.81,693.15 200.27,694.68C197.4,697.5 192.77,698.68 188.64,698.77C186.261,698.781 183.884,698.651 181.52,698.38Z" style="fill-opacity:0.1;fill-rule:nonzero;"/>
    </g>
    <g transform="matrix(1,0,0,1,-86,-125.75)">
        <path d="M216.57,719.07C216.57,719.07 205.49,718.73 202.15,716.35C198.81,713.97 185.15,711.14 184.29,714.95C183.43,718.76 167.64,733.95 180.14,734.01C192.64,734.07 209.2,732.07 212.54,730.01C215.88,727.95 216.57,719.07 216.57,719.07Z" style="fill:rgb(101,99,128);fill-rule:nonzero;"/>
    </g>
    <g transform="matrix(1,0,0,1,-86,-125.75)">
        <path d="M179.92,732.69C192.43,732.79 208.98,730.69 212.31,728.69C214.85,727.14 215.86,721.6 216.2,719.04L216.57,719.04C216.57,719.04 215.87,727.98 212.57,730.04C209.27,732.1 192.68,734.11 180.17,734.04C176.56,734.04 175.32,732.73 175.39,730.83C175.86,732 177.23,732.66 179.92,732.69Z" style="fill-opacity:0.2;fill-rule:nonzero;"/>
    </g>
    <g transform="matrix(1,0,0,1,-86,-125.75)">
        <path d="M710.32,354.32C721.38,362.78 727.88,376.23 730.05,389.98C730.69,393.98 730.99,398.14 731.64,402.2C734.385,418.894 742.993,434.075 755.91,445C752.061,446.901 747.51,446.778 743.77,444.67C746.592,456.048 751.801,466.697 759.05,475.91C750.739,471.7 743.451,465.719 737.7,458.39C735.521,472.991 739.452,487.863 748.56,499.48C737.374,494.164 729.018,484.261 725.66,472.34L735.2,497.5C729.2,495.79 724.9,490.7 721.45,485.5C708.667,466.243 703.146,443.051 705.88,420.1C707.06,410.47 709.69,401.01 710.12,391.32C710.55,381.63 708.38,371.22 701.44,364.43C696.2,359.29 688.88,356.93 681.69,356.43C677.17,356.11 665.46,359.72 669.89,351.58C676.67,339.15 702.43,348.29 710.32,354.32Z" style="fill:rgb(63,61,86);fill-rule:nonzero;"/>
    </g>
    <g transform="matrix(1,0,0,1,-86,-125.75)">
        <path d="M674.06,346.78L679.78,360.46C682.28,362.46 683.58,358.54 684.46,359.39C685.586,360.527 686.591,361.777 687.46,363.12L687.77,362.95L679.38,344.21C676.49,341.68 675.06,345.27 674.06,346.78Z" style="fill:rgb(49,205,230);fill-rule:nonzero;"/>
    </g>
    <ellipse cx="556.55" cy="270.97" rx="61.47" ry="59.16" style="fill:rgb(63,61,86);"/>
    <g transform="matrix(1,0,0,1,-86,-125.75)">
        <path d="M544,712.21C531.67,711.3 519,710.42 507.22,714.29C502.85,715.73 498.4,717.84 493.86,717.07C489.06,716.26 485.42,712.42 482.16,708.8C478.62,704.87 474.95,700.7 473.75,695.54C472.908,691.549 473.429,687.389 475.23,683.73C475.484,683.113 475.861,682.555 476.34,682.09C477.34,681.21 478.83,681.19 480.17,681.24C491.73,681.73 503.36,684.58 514.75,682.56C521.41,681.38 534.55,676.48 538.44,684.9C540.08,688.39 537.33,711.72 544,712.21Z" style="fill:rgb(87,90,137);fill-rule:nonzero;"/>
    </g>
    <g transform="matrix(1,0,0,1,-86,-125.75)">
        <path d="M422.12,633.07C406.74,637.26 392.03,643.58 377.38,649.88L344.8,663.88L354.43,687.72C355.26,689.72 353.69,689.6 355.69,690.5C357.91,691.5 363.03,692.88 365.31,692.01C387.26,683.62 412.51,688.42 434.59,680.37C442.72,677.37 450.32,672.72 458.87,671.37C468.87,669.76 479.46,672.85 489.14,669.8C490.185,669.558 491.125,668.987 491.82,668.17C492.358,667.188 492.555,666.056 492.38,664.95C491.88,656.72 488.77,648.95 484.73,641.88C482.08,637.2 477.85,627.88 472.58,625.6C466.63,623.05 455.01,626.78 448.81,627.7C439.815,628.959 430.902,630.752 422.12,633.07Z" style="fill:rgb(255,193,199);fill-rule:nonzero;"/>
    </g>
    <g transform="matrix(1,0,0,1,-86,-125.75)">
        <path d="M368.88,691.59C356.78,694.1 344.32,696.77 334.1,703.72C330.29,706.31 326.6,709.56 322.02,710.07C317.18,710.61 312.63,707.93 308.5,705.34C304.01,702.54 299.33,699.54 296.76,694.91C294.853,691.302 294.208,687.157 294.93,683.14C295.005,682.482 295.213,681.846 295.54,681.27C296.414,680.231 297.652,679.562 299,679.4C310.25,676.68 325.47,671.8 335.86,666.72C341.94,663.72 349.96,659.84 356.02,666.86C358.53,669.77 362.31,693 368.88,691.59Z" style="fill:rgb(87,90,137);fill-rule:nonzero;"/>
    </g>
    <g transform="matrix(1,0,0,1,-86,-125.75)">
        <path d="M622,470C621.213,472.349 620.89,474.828 621.05,477.3L621.05,495.76C620.905,498.414 621.22,501.073 621.98,503.62C623.15,506.85 625.69,509.37 628.28,511.62C636.619,518.841 646.262,524.401 656.69,528C662.49,530 668.84,531.42 674.75,529.71C678.144,528.571 681.314,526.853 684.12,524.63C691.905,518.954 698.879,512.242 704.85,504.68C710.85,497.01 716.06,487.11 713.06,477.82C701.658,475.412 692.376,467.078 688.76,456C687.61,452.34 687.05,448.32 684.64,445.34C679.48,438.96 669.48,440.75 661.64,443.14C654.03,445.45 640.81,446.79 635.17,452.59C632.94,454.88 632.09,458.64 629.91,461.14C627.29,464.19 623.6,466.09 622,470Z" style="fill:rgb(255,193,199);fill-rule:nonzero;"/>
    </g>
    <g transform="matrix(1,0,0,1,-86,-125.75)">
        <path d="M622,470C621.213,472.349 620.89,474.828 621.05,477.3L621.05,495.76C620.905,498.414 621.22,501.073 621.98,503.62C623.15,506.85 625.69,509.37 628.28,511.62C636.619,518.841 646.262,524.401 656.69,528C662.49,530 668.84,531.42 674.75,529.71C678.144,528.571 681.314,526.853 684.12,524.63C691.905,518.954 698.879,512.242 704.85,504.68C710.85,497.01 716.06,487.11 713.06,477.82C701.658,475.412 692.376,467.078 688.76,456C687.61,452.34 687.05,448.32 684.64,445.34C679.48,438.96 669.48,440.75 661.64,443.14C654.03,445.45 640.81,446.79 635.17,452.59C632.94,454.88 632.09,458.64 629.91,461.14C627.29,464.19 623.6,466.09 622,470Z" style="fill-opacity:0.1;fill-rule:nonzero;"/>
    </g>
    <circle cx="572.08" cy="294.1" r="49.57" style="fill:rgb(255,193,199);"/>
    <g transform="matrix(1,0,0,1,-86,-125.75)">
        <path d="M788.79,597.15C791.37,600.83 793.61,604.74 796.3,608.34C801.83,615.73 809.13,621.59 816.3,627.34L857.22,660.1C868.64,669.25 880.7,678.7 895.09,681.35C900,682.26 905.81,682 908.96,678.14C912.64,673.61 910.47,666.47 906.18,662.52C901.89,658.57 896.11,656.8 890.82,654.35C868.46,643.96 854.92,621.35 839.18,602.35C825.35,585.68 809.1,571.2 794.02,555.66C778.02,539.14 765.36,519.97 750.09,503.06C742.79,509.14 734.47,521.48 732.83,531.06C731.36,539.62 736.26,545.89 741.83,551.84C756.63,567.81 776.17,579.19 788.79,597.15Z" style="fill:rgb(255,193,199);fill-rule:nonzero;"/>
    </g>
    <g transform="matrix(1,0,0,1,-86,-125.75)">
        <path d="M762.45,480.2C762.27,494.33 750.26,505.57 747.17,519.35C746.798,521.627 746.257,523.873 745.55,526.07C744.28,529.28 741.82,531.87 739.29,534.22C735.11,538.11 730.35,541.74 724.75,542.85C724.08,542.98 726.75,496.52 727.69,492.21C730.6,478.25 750.81,481.45 762.45,480.2Z" style="fill:rgb(49,205,230);fill-rule:nonzero;"/>
    </g>
    <g transform="matrix(1,0,0,1,-86,-125.75)">
        <path d="M631.66,473.25C631.55,481.58 632.28,490.09 635.57,497.74C638.86,505.39 645,512.13 653,514.49C657.22,515.74 661.69,515.73 666.09,515.67C669.64,515.61 673.26,515.52 676.61,514.36C683.34,512.04 687.99,505.78 690.69,499.2C693.39,492.62 694.54,485.52 696.76,478.77C697.92,475.22 700.07,471.24 703.76,470.91C706.11,470.71 708.27,472.09 710.22,473.41L730.22,486.96C734.22,509.81 730.12,533.58 721.83,555.24C719.34,561.73 716.31,568.1 715.17,574.95C712.84,589.05 718.75,603.03 723.52,616.51C727,626.33 729.92,636.34 732.85,646.34L740.22,671.55C741.93,677.42 743.66,683.55 742.4,689.55C741.14,695.55 735.79,701.14 729.72,700.44C728.03,700.25 726.2,699.62 724.72,700.44C721.11,702.44 725.13,707.87 724.8,712C724.38,717.34 717.15,718.49 711.8,718.37C685.22,717.78 658.98,723.51 632.63,727C606.28,730.49 578.73,731.62 553.85,722.27C543.2,718.27 533.34,712.43 523.54,706.64C504.99,695.64 485.38,683.56 476.27,664.02C472.27,655.47 470.54,645.88 465.44,637.95C462.64,633.57 458.77,629.58 457.93,624.45C456.75,617.23 462.29,610.3 468.93,607.26C475.57,604.22 483.16,604.11 490.47,603.74C497.78,603.37 505.47,602.55 511.47,598.4C518,593.93 522,586 529.26,582.84C532.36,581.51 535.79,581.2 539.06,580.37C543.514,579.123 547.757,577.218 551.65,574.72C581.92,556.28 599.39,518.84 594.07,483.8C593.477,480.296 593.143,476.753 593.07,473.2C593.013,472.593 593.131,471.982 593.41,471.44C593.778,470.98 594.282,470.647 594.85,470.49C599.47,468.79 604.71,469.7 609.39,468.17C612.93,467.01 615.89,464.54 619.3,463.04C622.71,461.54 627.2,461.25 629.71,464.04C632,466.53 631.71,469.82 631.66,473.25Z" style="fill:rgb(49,205,230);fill-rule:nonzero;"/>
    </g>
    <g transform="matrix(1,0,0,1,-86,-125.75)">
        <path d="M625.76,425.74C622.23,413.14 606.2,405.64 603.84,392.83C602.6,386.07 605.67,379.21 610.43,374.17C615.19,369.13 621.51,365.66 627.84,362.48C637.12,357.81 647.25,353.48 657.84,354.43C668.76,355.43 682.71,357.36 691.19,364.07C697.19,368.81 698.85,378.67 700.7,385.75C702.455,392.994 699.486,400.607 693.29,404.75C686.29,409.41 676.83,409.07 668.12,409.1C659.41,409.13 649.69,410.2 644.32,416.51C641.38,419.96 640.25,424.45 638.12,428.39C635.99,432.33 632.06,436.05 627.31,435.66L625.76,425.74Z" style="fill:rgb(63,61,86);fill-rule:nonzero;"/>
    </g>
    <g transform="matrix(1,0,0,1,-86,-125.75)">
        <path d="M544.12,552.37C540.93,557.49 537.68,562.71 536.12,568.55C533.68,577.83 535.92,588.02 541.23,596.01C546.54,604 554.73,609.85 563.69,613.27C567.25,614.63 570.94,615.63 574.46,617.09C590.1,623.58 601.71,638.88 618.37,641.96C620.713,642.536 623.173,642.418 625.45,641.62C630.77,639.36 631.72,632.36 631.88,626.62C631.96,623.74 632.02,620.73 630.74,618.15C629.61,616.156 628.04,614.446 626.15,613.15C614.23,604.02 598.98,600.55 585.92,593.15C579.79,589.69 573.68,584.56 572.86,577.57C571.97,569.92 577.63,563.29 582.13,557.03C593.19,541.64 602.59,516.74 597.28,497.58C589.8,470.58 571.38,508.7 566.46,516.58C559.027,528.5 551.58,540.43 544.12,552.37Z" style="fill:rgb(255,193,199);fill-rule:nonzero;"/>
    </g>
    <g transform="matrix(1,0,0,1,-86,-125.75)">
        <path d="M580.67,478.42C577.82,481.7 575.9,485.67 573.47,489.28C570.043,494.368 565.621,498.708 560.47,502.04C566.23,501.44 572.74,501.04 577.03,504.95C580.66,508.22 581.5,513.51 583.86,517.79C585.633,521.171 588.572,523.797 592.13,525.18C595.737,526.533 599.793,525.984 602.91,523.72C607.54,520.12 608.05,513.43 608.17,507.56L608.38,497C608.46,493.07 608.38,488.76 605.86,485.77C604.29,483.93 602,482.9 599.94,481.63C592,476.74 589.6,468.17 580.67,478.42Z" style="fill:rgb(127,176,242);fill-rule:nonzero;"/>
    </g>
    <g transform="matrix(1,0,0,1,-86,-125.75)">
        <path d="M615,444.18C616.35,438.6 612.57,432.8 613.58,427.18C614.12,424.307 615.845,421.79 618.33,420.25C619.72,419.4 621.33,418.89 622.74,418.11C628.358,414.801 630.75,407.819 628.34,401.76C626.28,397.03 621.64,394.01 617.07,391.64C612.22,389.11 606.31,387 601.47,389.54C595.59,392.63 594.76,400.54 594.68,407.22C594.61,412.68 594.56,418.22 596.15,423.46C597.985,429.084 600.946,434.276 604.85,438.72C605.54,439.45 614.09,448 615,444.18Z" style="fill:rgb(63,61,86);fill-rule:nonzero;"/>
    </g>
    <g transform="matrix(1,0,0,1,-86,-125.75)">
        <path d="M615.68,514.18C611.17,527.82 595.68,533.49 584.84,543.18C585.386,541.636 585.66,540.008 585.65,538.37C585.65,534.37 584.65,530.37 585.79,526.53C579.821,533.685 571.787,538.826 562.79,541.25L558.41,497.12C553.903,511.267 543.451,522.771 529.8,528.61C542.22,506.36 546,480.5 550,455.34C550.974,448.264 552.363,441.252 554.16,434.34C556.66,425.398 560.464,416.873 565.45,409.04C568.487,404.211 572.19,399.835 576.45,396.04C580.74,392.44 585.59,389.94 590.33,390.82C598.51,392.36 595.22,396.37 590.33,400.05C586.45,402.95 581.55,405.66 580.39,406.82C579.073,408.144 578.09,409.762 577.52,411.54C575.64,417.27 577.66,424.54 580.12,430.46C586.411,445.662 594.07,460.262 603,474.08C607,480.18 611.18,486.18 614,492.91C616.82,499.64 618,507.28 615.68,514.18Z" style="fill:rgb(63,61,86);fill-rule:nonzero;"/>
    </g>
    <g transform="matrix(1,0,0,1,-86,-125.75)">
        <path d="M582.4,392.85L583.72,407.62C582.43,410.52 579.47,407.69 579.09,408.86C578.592,410.39 578.257,411.969 578.09,413.57L577.74,413.57L576.41,393.08C577.88,389.47 580.82,392 582.4,392.85Z" style="fill:rgb(49,205,230);fill-rule:nonzero;"/>
    </g>
    <g transform="matrix(0.725376,0,0,0.725376,264.811,59.7751)">
        <path d="M655.87,625.48C641.78,619.82 624.58,609.48 610.87,600.48C611,595.33 612.42,590.81 615.63,587.31C615.83,587.09 616.03,586.87 616.23,586.67C630.84,571.37 656.58,583.41 654.35,604.45C653.59,611.494 654.105,618.618 655.87,625.48Z" style="fill:rgb(251,220,163);fill-rule:nonzero;"/>
    </g>
</svg>
